/* XPM */
static char *_d378c745cc944d5a4650c8b0702eed45pOeICcOY7L8fFmY[] = {
/* columns rows colors chars-per-pixel */
"16 16 31 1 ",
"  c #5F3529",
". c #62372A",
"X c #65372B",
"o c #67392D",
"O c #6A3B2E",
"+ c #6B3C2F",
"@ c #6D3D2F",
"# c #6E3D30",
"$ c #733F31",
"% c #764232",
"& c #794335",
"* c #7C4536",
"= c #7F4637",
"- c #804738",
"; c #834939",
": c #864A3A",
"> c #884C3A",
", c #894C3B",
"< c #8C4D3C",
"1 c #92503E",
"2 c #945240",
"3 c #975341",
"4 c #9B5643",
"5 c #9D5745",
"6 c #9F5845",
"7 c #A35B47",
"8 c #A55B47",
"9 c #A75E47",
"0 c #AA5E4A",
"q c #B1624D",
"w c #9C8A84",
/* pixels */
"414w451840<w4854",
"**:wq*#o*%;w4***",
"*<+w4**$***w:1*<",
"wwwwwwwwwwwwwwww",
",444414w8764444w",
"4*4*O*&w4&%*#**w",
"4.,@*X*w9#;%***w",
"wwwwwwwwwwwwwwww",
"644w347q644w44q&",
"***w2***:,&w4,**",
",*,w4* *+;*w4*:*",
"wwwwwwwwwwwwwwww",
"6604441w1q44447w",
"4*&***@w6&**&**w",
"4+:****w4&&*:*-w",
"wwwwwwwwwwwwwwww"
};
