/* XPM */
static char *_4292b300e4646ae9eb773902586ad6dFktyhdKhNqKn7Vgg[] = {
/* columns rows colors chars-per-pixel */
"64 64 153 2 ",
"   c None",
".  c #020101",
"X  c #0F0B07",
"o  c #0E0C0C",
"O  c #130101",
"+  c #180D07",
"@  c #120E0D",
"#  c #14110E",
"$  c #1A120E",
"%  c #0F0D11",
"&  c #110F12",
"*  c #180F10",
"=  c #0F1014",
"-  c #141213",
";  c #1A1514",
":  c #1D1916",
">  c #161419",
",  c #1A1619",
"<  c #1D191B",
"1  c #210C07",
"2  c #21150E",
"3  c #221613",
"4  c #221A16",
"5  c #2B1A14",
"6  c #201718",
"7  c #221C1B",
"8  c #2A1E1C",
"9  c #311F1B",
"0  c #2E2317",
"q  c #26211E",
"w  c #2F221A",
"e  c #2D211A",
"r  c #2E241B",
"t  c #2B221D",
"y  c #29211F",
"u  c #2E231D",
"i  c #2F241E",
"p  c #2F261F",
"a  c #2C221E",
"s  c #30211A",
"d  c #30231B",
"f  c #33251C",
"g  c #34271F",
"h  c #37261E",
"j  c #34221D",
"k  c #3D291E",
"l  c #1E1C21",
"z  c #1D1C21",
"x  c #241B20",
"c  c #231E22",
"v  c #231D21",
"b  c #281F22",
"n  c #252122",
"m  c #262122",
"M  c #2B2321",
"N  c #2B2122",
"B  c #2C2223",
"V  c #2E2222",
"C  c #292421",
"Z  c #282224",
"A  c #2D2727",
"S  c #2B2423",
"D  c #2D2825",
"F  c #2C2529",
"G  c #2E292A",
"H  c #302624",
"J  c #352727",
"K  c #332423",
"L  c #3A2522",
"P  c #322827",
"I  c #302B27",
"U  c #322925",
"Y  c #392B22",
"T  c #3D2C24",
"R  c #3D2A24",
"E  c #32292A",
"W  c #342A2B",
"Q  c #35292A",
"!  c #33282C",
"~  c #34292D",
"^  c #372B2D",
"/  c #372F2D",
"(  c #342B2A",
")  c #392B28",
"_  c #382E2F",
"`  c #3A2E2E",
"'  c #3C2D2C",
"]  c #3B3125",
"[  c #3A302F",
"{  c #3F312E",
"}  c #3B302C",
"|  c #322B30",
" . c #392D31",
".. c #382E36",
"X. c #3B3130",
"o. c #3D3336",
"O. c #3E3435",
"+. c #3D3332",
"@. c #3F3438",
"#. c #3C3F38",
"$. c #440E02",
"%. c #481D14",
"&. c #42271C",
"*. c #402625",
"=. c #412D22",
"-. c #432F26",
";. c #452E24",
":. c #422B23",
">. c #4B2D23",
",. c #442E2A",
"<. c #492F29",
"1. c #423026",
"2. c #443226",
"3. c #4C3123",
"4. c #413028",
"5. c #423129",
"6. c #453329",
"7. c #46332C",
"8. c #46312C",
"9. c #4B322D",
"0. c #523225",
"q. c #513528",
"w. c #543A2B",
"e. c #5B3A2D",
"r. c #423330",
"t. c #403634",
"y. c #4C3531",
"u. c #483F36",
"i. c #48343D",
"p. c #463B39",
"a. c #4E3E3C",
"s. c #4F3C38",
"d. c #513631",
"f. c #543933",
"g. c #5B3D34",
"h. c #623F34",
"j. c #534032",
"k. c #51473D",
"l. c #5E423C",
"z. c #624233",
"x. c #62413A",
"c. c #6A4439",
"v. c #6B4A3A",
"b. c #494440",
"n. c #6B4D45",
"m. c #7D5546",
"M. c #635151",
"N. c #825E46",
"B. c #8F614D",
"V. c #916250",
"C. c #A37055",
"Z. c #CE8D71",
"A. c #F9B68A",
/* pixels */
"                                    { H y ; : ; 4 4 : : : : : : : $ $ $ $ # $ : # # ; # ; : : : 4 0 r 0 d 6.1.2.                ",
"                              a.7.) A M : : : : 7 : : : : : $ : : : ; ; : : ; - ; ; ; ; : : 4 4 : 4 r r Y 1.7.2.;.              ",
"                            Q W C q q : ; ; ; 6 7 ; ; : ; ; # ; $ ; ; : : ; ; # - ; : - # : : 4 4 0 p r 0 0 f ] 2.              ",
"                          ' Q b D q : : , : ; : 4 ; 4 : ; ; ; ; : ; ; $ ; # # : # # # = ; : : : : : q q 0 4 2 q h T =.          ",
"                    .. .J [ 8 6 q : : : : ; : : < : , ; - ; ; : ; ; # ; # # # # # = o # # : : : - : ; $ q 4 : : 4 d e           ",
"                E  .! c B C 7 < : : - : ; : : - > ; - * ; - ; # # # # o = = o # # o # # # ; : : 4 4 4 : ; ; $ : 2 4 e           ",
"              I _ b < , < < < 7 : < < < : < ; > - ; ; ; ; - # = # # o # # o o # # # # # ; : : # ; : : : : : $ # $ $ 0           ",
"            i.p.B , > , > > , v q q : : q q ; ; - ; ; @ # # ; - = o # o = # o # = - < < : : : : : : : : $ $ # $ # : ; e         ",
"            O.[ 8 < > z > > > < < ; : : q < > > ; - # - - # # # = # # # # # - - # # ; ; # # ; : ; ; ; : ; ; * * $ $ ; 2 4       ",
"          ~ o.E < , > > > > , z < < < > = = = = # - - - # & # # # = # # # # # # = # # # ; ; ; ; ; ; ; * ; ; & @ # - # $ $       ",
"        M.@./ v z c < > > > < > > = = # > # = # ; ; - # = # # - # ; ; # # # # # X # # # : : 4 q : 4 : $ @ $ @ * # @ # # # :     ",
"        o.A n Z A < < > > < , - # - > ; ; > > > = # # # ; # ; , ; # # ; # # # o o = # ; $ # : 7 7 6 4 ; @ @ & * # # @ # $ $     ",
"        ~ F n ( D z > > < < > = > < < < z < > > > # = ; ; ; ; # # : ; ; ; o # o o # o ; ; : : $ : : : : @ @ @ @ @ @ * @ @ #     ",
"      r.X.A F S z > > < , , > < : > = > = = # = # = > ; ; - # ; # = # # # # # o o o = # # X # # ; ; : ; ; @ @ @ # - @ @ # @ $   ",
"    t.t.+.Z F n , < z : < > , > = ; = # ; # # # # # : ; # ; - # # # # # # = o o o o # # - : # # - : ; $ ; # o @ @ @ # $ @ #     ",
"    O.O._ F n z < l q z q 7 < , > = = > : ; = = ; : # ; : # # # # # # # # # # o X o # # : : q : # # : $ # @ @ @ # @ @ ; @ #     ",
"    _ / F F Z G c Z c x x > > > % - : 7 : ; - n 7 - - : ; # # - # # # o # o o o o o o # : : 4 q # # # $ # @ @ @ - - @ # # #     ",
"    | A n n F n 7 7 , , , > > - - , < ; - - < < - # , : , $ ; : ; ; # # o = # o o o o o # : : : : $ $ # @ @ @ @ # @ @ + $ X     ",
"    G Z c Z < , z , , < < > > , 7 4 - = = = - = o < q q : ; q < : # # # # # = o o # X o X # ; : ; # # # o @ @ @ @ @ @ # $ X     ",
"    A Z c c c Z F n 8 v , , < n C , - & # & & & : q : < : : 8 ; ; # # # = = # o o # # # o # ; : ; # # # @ @ @ @ @ X X # @ # #   ",
"    A q Z ^ A H H 8 < : < Z Z Z z , > > = = & : C < : < z < , ; : ; & o # # = = o = # # # # # : - # @ @ @ @ o @ @ o @ @ @ @ X   ",
"    I C S A H A 7 , , < C 7 < , < q z l < - - q < : ; < ; > < z < # o o ; - o o o - - # o o # ; ; @ ; @ $ # o % @ @ @ X @ @ $   ",
"    J H C C E B 7 c < < < , < ; q < < < , > > > < > > ; = = > < - - & # - o # # - ; # X o o = = # @ ; @ @ # @ o o o o X @ @ #   ",
"    J B C q 7 < v z v < ; , ; ; : - > , , - - ; : = = = = - < : - # = - # # - > ; # # o o = > o o - ; @ @ # @ o o o o X @ @     ",
"  Q H d A 7 6 < < z z > < < ; < - : z < > - % - - o % o - # - > > ; # : : : > ; = # o # = = o o & , - o @ @ X o o o o o o @     ",
"  ] H i C 7 < 7 > < : , n < ; ; : < < z > % % = = o % o o - : q ; # > : < = > # o o o o = o o # - > o o o o o o o o o o X o     ",
"    i a C , < , , , , C < - - , < , z 7 % & % % & o - > q 7 , < = = : : # ; : = o o = o = = = o = % o o o o o o o o X o o #     ",
"    H 8 y : : ; 6 7 6 7 ; - - < > : q : , - o % o ; 7 D A , - - # - q ; : < # o o o o > ; # o o o o o o o o o o o o o o X o     ",
"    h e B 7 , ; 6 : : 7 ; - > > - < , < < - o o < q n n < > > - - : < ; > - - # # o # : # o X X o X o @ o o % o % & % X o @     ",
"    ' a i q 4 : : ; , : ; = > > - > < z = - X # < ; < - - , > = > > - - = - : ; # # < = = # # X o o @ o % & & % % & % X o # @   ",
"      H C q < : , $ ; < > - ; > > - < - = < o > ; - > - - < > - = & = o > q : - - - - z - - # o & o o o % = % % o o @ o @ @     ",
"      a 8 4 7 4 ; , ; ; - - = - - > - ; # ; % - ; > , - - > = = = & & > C 7 : ; = o > : = - & & & # o o % % % o o o o X X @     ",
"        8 7 3 6 , * ; ; ; * & * & & * ; ; $ & & & , > = > > > > = o - n v ; - > o & & o % % % % & % o o o o o o o % o o O X     ",
"        7 6 : ; : $ ; ; , ; > > & % > ; - - - ; & & & = = = = > & = < < ; > - % o > > @ & o % % o o . o % o o . o o o o % %     ",
"        a 7 : ; : ; - - - $ > - > & * > # # - ; > * * > > = > % = - > ; > z > % > , * & & % % % % % % % o o o % % % % o % %     ",
"        8 8 : , ; ; , > ; , > * & & > ; @ - - - & * = & & = > = % - ; ; - % = ; * > ; % % % % > - % % o o % & % % % % % % *     ",
"        ] a < : < ; * * ; ; > > > > = > * * > > & % - & - % & & % $ - & o ; z ; z , & @ & & & > - % & & & % & % % = = - >       ",
"        I u.8 < : : ; ; ; ; > * > > > & & * > > > > > > - = % % - - - ; < Z < z , * @ > > & & % % > = = % % & & % = - - *       ",
"            8 3 : : > ; ; , ; = > = * , & * & > > > > & - % % % - > , c c 7 7 , ; ; < > & & % > > = = & % % % & > - & - o       ",
"              ; ; ; * ; , ; > ; & > * > > * > > & > = = % % - = - < v x , > > , 6 < , - % % & > = = > = % % % & = > - @ #       ",
"              ; $ # ; ; ; : ; - > & * > > * > > > & > & & % & - > , < , > > , , , > - & % & & & % > & - % % - = & - * #         ",
"              @ @ # $ ; ; ; : - , > > * & , > > > & ; > = & & > ; % > > & > , ; > - = > = % % = & > > = = > % & o & @ @         ",
"                @ $ $ $ # : ; $ , , * > , * * > > > - - > > & - - @ ; @ & , ; 6 > > > > > > & > & > > & > > & * @ @ $           ",
"                  o ; $ # $ # ; * * * ; , > * * - & - - * & @ & @ @ ; * * ; ; , > > > , > > & & & = & > & * * & * >             ",
"                    ; ; $ # # $ $ @ @ ; * * > & # # @ $ # # @ + @ @ @ * ; @ @ ; > & - > o o & @ & & & * @ @ ; @ ; @             ",
"                      # : $ # # # $ @ @ @ @ * @ # @ # # @ @ @ @ @ X @ ; ; * @ - @ @ - @ @ @ @ @ & @ & * @ @ + 2 $               ",
"                      . # $ # $ $ @ # @ @ @ @ * # @ @ X @ @ @ @ @ @ @ @ @ $ # @ @ @ * @ @ @ @ @ * & * @ X + 3 .                 ",
"                        $ . $ 4 + X $ @ @ @ + * $ $ @ @ $ # @ @ @ * @ * # ; * @ * * @ @ @ # @ @ @ @ @ X @ 2 9                   ",
"                        $ . q k.] 2 + X $ # $ # ; $ # # ; , * ; ; * , ; ; * ; * @ # * @ @ @ + X X X X @ $ 5 5                   ",
"                            r s.A.3.2 5 : + # # $ # ; : ; ; : ; - ; ; > - ; - ; @ @ - - @ @ @ @ X @ + 2 :.5                     ",
"                              w.C.Z.q.5 $ 2 $ + $ $ ; ; * * ; * ; $ ; * ; $ * : : * * * ; * ; * $ 4 3 O 9                       ",
"                              z.q.e.0.&.h 2 $ 5 5 4 ; 3 ; ; 3 ; : : ; ; : : 6 6 3 3 ; 3 3 3 6 3 3 5 + 1                         ",
"                                >.w.0.B.w.;.k -.9 5 8 8 5 8 8 8 8 6 6 8 6 7 8 7 8 8 8 b 9 K 9 9 $ 0                             ",
"                                    0.N.w.v.z.g.>.T :.j L V K J K 9 8 V 8 8 V 9 K J K L *.:.9 8                                 ",
"                                        T v.z.k.c.x.h.f.q.<.d.s.y.*.*.R ,.j Q ,.,.y.<.$.L <.s                                   ",
"                                            g.p.v.w.V.N.c.h.h.n.l.f.f.9.d.d.d.d.f.Q <.%.L K                                     ",
"                                                    N.m.c.c.x.n.x.f.f.<.s.y.7.d.f.B ,.L                                         ",
"                                                        x.h.g.l.g.d.9.8.y.7.,.y.                                                ",
"                                                                                                                                ",
"                                                                                                                                ",
"                                                                                                                                ",
"                                                                                                                                ",
"                                                                                                                                ",
"                                                                                                                                "
};
