/* XPM */
static char *_12337f848d94428d01400ce0e5cf480t5MhvwqX0LeGLBvI[] = {
/* columns rows colors chars-per-pixel */
"64 64 3 1 ",
"  c #020106",
". c #030207",
"X c #040308",
/* pixels */
"                                                                ",
"                                                                ",
"                                                                ",
"                                                                ",
"                                                                ",
"                                                                ",
"                                                                ",
"                                                                ",
"                                                                ",
"                                                                ",
"                                                                ",
"                                                                ",
"                                                                ",
"                                                                ",
"                                                                ",
"                                                                ",
"                                                                ",
"                                                                ",
"                                                                ",
"                                                                ",
"                                                                ",
"                                                                ",
"                                                                ",
"                                                                ",
"                                                                ",
"                                                                ",
"                                                                ",
"                                                                ",
"                                                                ",
"                                                                ",
"                                                                ",
"                                                                ",
"                                                         X X X X",
"                                                        X X X X ",
"                                                         X X X X",
"                                                        X X X X ",
"                                                         X X X X",
"                                                        X X X X ",
"                                                         X X X X",
"                                                        X X X X ",
"                                                           X X X",
"                                                            X X ",
"                                                           X X X",
"                                                            X X ",
"                                                           X X X",
"                                                            X X ",
"                                                           X X X",
"                                                            X X ",
"                                                         X X X X",
"                                                        X X X X ",
"                                                         X X X X",
"                                                        X X X X ",
"                                                         X X X X",
"                                                        X X X X ",
"                                                         X X X X",
"                                                        X X X X ",
"                                                        XXXXXXXX",
"                                                        XXXXXXXX",
"                                                        XXXXXXXX",
"                                                        XXXXXXXX",
"                                                        XXXXXXXX",
"                                                        XXXXXXXX",
"                                                        XXXXXXXX",
"                                                        XXXXXXXX"
};
