/* XPM */
static char *_a7f0702aa6d4820d207dc3806033a52z1nMyQDlUxwAtivy[] = {
/* columns rows colors chars-per-pixel */
"64 64 159 2 ",
"   c None",
".  c #020005",
"X  c #09050C",
"o  c #0E0A11",
"O  c #343235",
"+  c #41403E",
"@  c #585659",
"#  c #615F62",
"$  c #646364",
"%  c #6E6B6E",
"&  c #6F6D70",
"*  c #747174",
"=  c #777578",
"-  c #787679",
";  c #7C7A7D",
":  c #8A807F",
">  c #7F7D80",
",  c #807E81",
"<  c #848285",
"1  c #878588",
"2  c #89878A",
"3  c #8B898C",
"4  c #938C8C",
"5  c #998E8C",
"6  c #8F8D90",
"7  c #908E91",
"8  c #949395",
"9  c #9C9493",
"0  c #979598",
"q  c #999699",
"w  c #9C9B9D",
"e  c #A19694",
"r  c #A29896",
"t  c #A39E9D",
"y  c #9F9DA0",
"u  c #A19EA1",
"i  c #A4A2A5",
"p  c #ABA5A4",
"a  c #AEA9A6",
"s  c #A7A5A8",
"d  c #A9A7AA",
"f  c #ACAAAD",
"g  c #B2ADAD",
"h  c #B8AFAC",
"j  c #AFADB0",
"k  c #B0AEB1",
"l  c #B4B2B5",
"z  c #B9B6B4",
"x  c #BCB8B7",
"c  c #B7B5B8",
"v  c #B9B6B9",
"b  c #BCBABD",
"n  c #C0B8B5",
"m  c #C2BDBE",
"M  c #BFBDC0",
"N  c #C1BEC1",
"B  c #C4C2C4",
"V  c #CAC5C5",
"C  c #CCC8C7",
"Z  c #C7C5C8",
"A  c #C9C6C9",
"S  c #CCCBCD",
"D  c #D1CCCD",
"F  c #D4D0CF",
"G  c #CFCDD0",
"H  c #D1CED2",
"J  c #D4D2D5",
"K  c #DAD5D5",
"L  c #DCD8D7",
"P  c #D6D4DA",
"I  c #D9D7DB",
"U  c #DCDADC",
"Y  c #E1DDDD",
"T  c #D9D7E2",
"R  c #DDDBE2",
"E  c #E1DFE2",
"W  c #E1DFE8",
"Q  c #E4E2E4",
"!  c #E9E5E6",
"~  c #E6E4EA",
"^  c #E9E6ED",
"/  c #EAE7EE",
"(  c #EBE7EE",
")  c #E8E5EC",
"_  c #E9E6E9",
"`  c #E9E9EB",
"'  c #E9E8ED",
"]  c #EAE8EC",
"[  c #EBE9ED",
"{  c #EAE9ED",
"}  c #EBEBED",
"|  c #E9E8EE",
" . c #EAE9EF",
".. c #EAE9EE",
"X. c #EBEAEF",
"o. c #EDEBEF",
"O. c #ECEBEF",
"+. c #ECECEE",
"@. c #EDECEF",
"#. c #EDEAED",
"$. c #F1EDEE",
"%. c #EAEAF0",
"&. c #EBEBF1",
"*. c #ECE9F0",
"=. c #EDEAF0",
"-. c #EEEBF2",
";. c #EDECF1",
":. c #EFEDF1",
">. c #EEECF0",
",. c #EFEFF0",
"<. c #EDECF2",
"1. c #EFECF2",
"2. c #EFECF3",
"3. c #EFEEF2",
"4. c #EDEDF1",
"5. c #F0EDF3",
"6. c #F1EFF3",
"7. c #F1EFF5",
"8. c #F2EFF6",
"9. c #F1EFF1",
"0. c #EEF1F6",
"q. c #F1F1F3",
"w. c #F1F1F2",
"e. c #F1F0F5",
"r. c #F2F0F5",
"t. c #F2F1F5",
"y. c #F2F2F4",
"u. c #F3F1F7",
"i. c #F4F1F7",
"p. c #F4F2F7",
"a. c #F4F4F4",
"s. c #F4F2F5",
"d. c #F9F5F6",
"f. c #F4F1F8",
"g. c #F5F2F9",
"h. c #F5F3F8",
"j. c #F6F3F9",
"k. c #F7F3FA",
"l. c #F6F4F9",
"z. c #F7F5FA",
"x. c #F7F4FB",
"c. c #F7F6FC",
"v. c #F6F4F9",
"b. c #F8F5FB",
"n. c #F8F6FB",
"m. c #F8F5FC",
"M. c #F9F6FD",
"N. c #F9F7FD",
"B. c #F9F6FB",
"V. c #F8F8F9",
"C. c #FFFBFA",
"Z. c #FAF8FD",
"A. c #FBF9FE",
"S. c #FCFAFF",
"D. c #FDFBFF",
"F. c #FEFCFF",
"G. c #FFFEFF",
"H. c white",
"J. c #FDFBFE",
/* pixels */
"                                                                                          o . o . . . . . . . .                 ",
"                                                                                          . X . . . . . . . . .                 ",
"                      ! x + B Z Z G G G T P G G S S A A F Q a.J.l B l I ` w ` E ~ #.W ^ W ( ( k.) *.5.5.5.e.h.G.                ",
"                      C.F $ S M Z G P P P P P G A A A S J Q w.V.k j Z M I j Q +.G.I ~ U P ~ ~ P ^ -.h.5.5.e.A.G.A.              ",
"                      C g z S F G P P P H J J J J J J J Q +.,.} H E ~ H B ~ R } U A.I =.R W ) f.( 5.8.-.) ) 5.b.Z.              ",
"                      a g m B z S G P G P P P T P T I R ` 0.,.R b b k A M A U q._ ~ Q ~ E ^ W ~ ^ -.8.8.=.=.p.A.A.              ",
"                      p a z z F P P T P P P T J J U W Q } 0.,.Y k m k c A Z +.~ q.~ f.&.=.R G.~ ( -.f.h.8.k.A.G.G.              ",
"                      t t a B B G P P T T T T T P W W ~ ` 0.,.Q l k g N N D I _ | 4.&.Q ^ c.R N.f.x.M.m.h.h.b.A.A.              ",
"                      9 p x a F H T T P T P T R R Q ~ ] 4.e.4.] k l d n N V W Y ( ( ( ( | | %.%.5.h.M.M.b.b.Z.A.G.              ",
"                      a 9 9 m m H H T T T T R R R Q | | q.h.e.+.c l d v N D W ( ( ( ( ( %.%.&.4.h.h.k.M.b.b.b.b.G.              ",
"                      9 a n x V G P T T T T R R W ~ | =.e.h.e.4.N g f n n N Y ) $.( ( ( &.&.4.0.h.x.b.M.V.b.p.p.4.              ",
"                      9 5 r h m G P P T T T R W W ~ | 4.e.e.e.e.l d d N N N T W ( -.-.2.4.0.0.0.x.x.h.M.A.b.p.5.#.              ",
"                      5 e h h C G P T T R R W W ~ ~ %.<.0.0.a.a.N r g N N H Y ( ( 5.4.4.2.0.0.0.x.x.h.x.Z.M.e.4.h.              ",
"                      e 5 e h F G P T T R W W W ~ | %.<.0.0.a.V.N r h N m T Y ( 2.$.=.=.2.0.0.0.h.x.x.M.M.V.p.q.5.              ",
"                      e : n n V P T T R R W W ~ %.~ | %.,.+.a.d.N u k N N T W ( -.-.( 5.0.0.0.p.h.x.M.M.b.h.h.h.5.              ",
"                      5 : p V F P T T R R R W W ~ W Q ~ ! ! ,.a.2.h N D H T W ( -.$.$.-.0.0.0.p.h.x.M.M.d.b.b.Z.G.              ",
"                      % * p H Y Y #.K K U K L S F Y L Y Y Y ` ! _ D m F L Y $.$.$.$.$.$.$.$.$.w.h.b.C.A.Z.Z.A.A.G.              ",
"                      ; 3 v S N q g m V K L F U L L L Q Q Q } Y ! Y K E ! Q ! Y ! ! ! $.$.} $.w.5.p.d.b.C.b.V.A.G.              ",
"                      > 2 f v f 5 g m w t x m K Q L L L F L ` ! E E ! ! $.9.$.d.a.a.a.! ! Y Y ! #.+.q.p.b.a.b.d.A.              ",
"                      ; 3 u i 8 i D D 9 4 h g i a M F Y Q Y ! Y ! $.$.Y ! $.Y $.$.$.a.$.$.a.a.a.#.$.q.p.a.a.a.b.p.              ",
"                      > d b g 8 p C x t a C S w z C z l C C F Q Y E ! E q.$.Q #.! $.$.$.,.a.a.w.$.p.h.d.h.a.a.b.$.              ",
"                      3 j k d 0 8 a f l a c F z M F a a B M f s V D N F U L ! } $.$.d.$.} ,.} ! s.a.a.d.b.b.d.b.a.              ",
"                      y w 3 y 0 7 q B K a i z y x x i 0 a b S M D V g n x g F S F Y $.$.} ,.w.,.5.s.a.b.b.b.d.A.M.              ",
"                      j d y B b M p G C w f a 6 y i j l a B Q M H J b L S c Y F i x D D Z S L U $.q.s.d.d.V.V.V.q.              ",
"                      9 l w y G C j k j M S Z w i F J B f f B f B z s J M y M J x l J L l f z b J R Z K #.V.p.G.p.              ",
"                      1 1 3 7 k x 8 8 s S J M 0 f Z B l f s i w u k 8 f l g p w f y x C f w f F E S i f B J K #.A.              ",
"                      8 > 0 0 0 0 w i w i y s s w i f b S l 0 f m K i j J Q N i y y f f i i i x l l f k f v B J d.              ",
"                      7 1 l Z M w B B 0 y j S P b i b J U c 0 c E K y g C G c a B Q J f b S f 0 v K W G d N I b.b.              ",
"                      ; 3 j Z b i S S y f b Z G M y f M B M f f S B j B f y 0 y C Q J z I Q M l v G ` I l b b P G.              ",
"                      ; 7 w u 3 c S S M G B l f i w i i M I M w j M L Y l i i i l j i f F C z Y Q v f f u f f I h.              ",
"                      < 3 f l w i w 0 y S S j 8 M G c l J I c y i x B B z M f i F B f s b j y S ~ c l S U H l Q #.              ",
"                    t 6 7 A Z d 7 s f 0 s j b j J ` f y Z f 0 l S F s w b Y x f U Q M 0 f c i f b l B U Q S s I V.              ",
"                      < < u v f u S S f w f 7 d b N w 0 c c d k U J S y S Q c w l Z Z j G ` b y j i d Z S s y H V.              ",
"                      > d j d 7 u H Z d y N b u d Z k b R A d f l l l w l l s c S M s i J I j d G Z f j J Z x Q a.              ",
"                      < c Z k i u N k i u H _ k Z U N N E A i i y i y y f w l G Q U j s S M f l U +.S B ,.I M } }               ",
"                      0 q d u y q u c N i v J k H G d u c N M j B S f f j y l c c Z s y d M G M b P G J Q M s E G.              ",
"                      j y 8 i d i y P U i y d w d d i u u A ~ b U U b S S b S S i j l j f G +.l i j f j c s s S G.              ",
"                    ; s c 7 B P G i Z M l N c w i l A N i N E l B Z c U S c J Q b M U R b M U c G B f s B J G S G.              ",
"                      , y 3 i M S i y u Z P G u c G U Z d d b u l l s M f i f l f s S P l i b S ` U l j E } J P h.              ",
"                      > < 0 < q u q 0 k G c c 7 u M M l j i i t l l i j j B b y f 0 s j i w i J Z Z w y J Z j I G.              ",
"                      7 < 8 u j q i j 0 u u v v f 7 j S U Z 0 f J J f l Q Q M y i M M i s l s f j M A v s l R Q a.              ",
"                      , 8 v Z Z i M M q y j H R M f N P P v 0 v I B s f l l c f J Q J l B S j i M I ' K f v I &.b.              ",
"                      & > d c f c H G j v M N B l u u u v N s c Z b Z J j 0 i 0 M Z b l R R b Z B Z J G f l j K G.              ",
"                      * ; w w 1 f N c k H G d w f f s i H ~ v 0 s l J U c s f 0 j j i i S M j Q Q c s l f M s U G.              ",
"                      < 0 v c y 8 i q y N Z d d S P B c H H j u f M c i l Z b f R U l w j s 0 Z E c f U Q I f ~ G.              ",
"                      , 3 k M j 0 v k u y i u j P S d w k i y b J U b w Z Q M i G R M i M Z s s j s l E ~ B 0 K G.              ",
"                      = ; y d u u J G j 8 j i q k v y i S M i k J J M f G P f i l b j f J ` b i l c i j B s u R G.              ",
"                      > 0 c j 7 u G Z u q H A u k H N M U G d u f i i y i f i S R Z j j S J j y J U c c Y H A _ G.              ",
"                      ; w k c 8 y j i c u Z T c b U M c J S k u j u k q u w s A I I f i v M b s G ~ Z Z #.S l #.y               ",
"                      w 7 3 i 3 7 u M H d d c j A M y w f b A M A P l b A f S N k l w 0 d N I B l A M B J v f B O               ",
"                      j u 3 d b k k A A i y q 8 u y u s i B W Z A E c H U f I G i N S b f S R v i j f d f l l b A.              ",
"                      8 f 0 i R A j v c v J M y u N U A d M S d B N b H A f m W l N W E b v A k U A k k S E I J G.              ",
"                      ; 6 2 3 l c q u i N R M 0 f G I l y u i w f w y i d d w k k 0 l H j 0 k H | H s f U ~ A b G.              ",
"                      2 = 2 0 7 u 7 y y f d i q q u j l b k q d B B u k S U Z y i w d d y y i M c b d i l v b H q.              ",
"                      < - u c i w i j u u u B G k u c P E M q k S P y l S J S w l H A i k N s y f Z U B f l R A.J               ",
"                      $ ; f v v u N N i u d H Z M u c A N j w k J G i k k d i u H ~ J l H I f k b S _ P d v U G S               ",
"                      , & 6 w 1 s M M j Z l d f u y 3 i c G j 0 l d P A M 0 y u k c s l I I N S J b b M i u i B s               ",
"                      # ; 6 8 < 8 f u q Z A i 3 j f v y S Q k u w f H U j l f u b N i f l f s U I c i d J J f J B               ",
"                      $ = w 3 6 * 7 3 < y k y 0 A Z i 0 l f 7 s f M u 7 f P k u G Q j 7 s f 0 j Z N b I ~ S 8 I S               ",
"                      * @ & y < ; y 0 6 > 3 < y u l 6 7 s y i 0 S b j i c G l y b Z k w B B d w u 3 d S b l B A.                ",
"                                                                                                                                ",
"                                                                                                                                ",
"                                                                                                                                ",
"                                                                                                                                "
};
