/* XPM */
static char *b5bcf67980be4f8be7e14e214f57b0ebSUuwWXSEupK8DyCI[] = {
/* columns rows colors chars-per-pixel */
"64 64 246 2 ",
"   c None",
".  c #190E0B",
"X  c #180C06",
"o  c #1C130D",
"O  c #17120D",
"+  c #1E1411",
"@  c #1F1812",
"#  c #0B0100",
"$  c #22150D",
"%  c #2C150C",
"&  c #2C1A0E",
"*  c #23170D",
"=  c #331A0E",
"-  c #221611",
";  c #2B1711",
":  c #251913",
">  c #2B1B14",
",  c #2C1D1A",
"<  c #22141C",
"1  c #321D14",
"2  c #331E19",
"3  c #3B1D18",
"4  c #220E06",
"5  c #352116",
"6  c #3C2315",
"7  c #35221A",
"8  c #3B241A",
"9  c #3D2A1C",
"0  c #2E2018",
"q  c #331D2C",
"w  c #3A2521",
"e  c #3B2824",
"r  c #451D16",
"t  c #43251C",
"y  c #442A1C",
"u  c #4A2D1C",
"i  c #492618",
"p  c #5B2D1D",
"a  c #542A1C",
"s  c #4D311E",
"d  c #53331F",
"f  c #67321E",
"g  c #432C24",
"h  c #4C2C23",
"j  c #472726",
"k  c #532D23",
"l  c #592B24",
"z  c #4B3428",
"x  c #533324",
"c  c #5C3224",
"v  c #5D342B",
"b  c #5B3A2C",
"n  c #573728",
"m  c #5A3B33",
"M  c #4F2C37",
"N  c #633324",
"B  c #6B3524",
"V  c #64352A",
"C  c #643A2C",
"Z  c #6B3A2B",
"A  c #683828",
"S  c #743C2B",
"D  c #7B3D2B",
"F  c #733927",
"G  c #673B35",
"H  c #743E31",
"J  c #783F34",
"K  c #411F20",
"L  c #5D4238",
"P  c #6B432C",
"I  c #6C4537",
"U  c #744334",
"Y  c #7C4334",
"T  c #7A4638",
"R  c #79533A",
"E  c #74412D",
"W  c #17294F",
"Q  c #2F254C",
"!  c #173068",
"~  c #35306A",
"^  c #1C1C5A",
"/  c #4C374E",
"(  c #643C42",
")  c #493167",
"_  c #573968",
"`  c #523370",
"'  c #2B5070",
"]  c #5E4842",
"[  c #594E54",
"{  c #664B45",
"}  c #764544",
"|  c #77574A",
" . c #6A5B54",
".. c #6F4F52",
"X. c #77665C",
"o. c #504576",
"O. c #6C4A6D",
"+. c #6E6B6A",
"@. c #776C66",
"#. c #7E736B",
"$. c #75716E",
"%. c #787675",
"&. c #6F7978",
"*. c #813D2B",
"=. c #843E32",
"-. c #84432D",
";. c #8B4634",
":. c #8B4B34",
">. c #8C4B3A",
",. c #834736",
"<. c #934C3C",
"1. c #984C37",
"2. c #8C523B",
"3. c #98543C",
"4. c #A3543E",
"5. c #A75C3D",
"6. c #B0653D",
"7. c #8D411F",
"8. c #8A5746",
"9. c #9A5644",
"0. c #90524C",
"q. c #A25642",
"w. c #A45B43",
"e. c #AC5B44",
"r. c #A85B49",
"t. c #B25E44",
"y. c #B55945",
"u. c #A85D53",
"i. c #B15F51",
"p. c #85685B",
"a. c #95664F",
"s. c #AC6345",
"d. c #AA6347",
"f. c #B26344",
"g. c #B5634C",
"h. c #BA644B",
"j. c #B46B4B",
"k. c #BC6B4C",
"l. c #B96A44",
"z. c #AC6556",
"x. c #B86654",
"c. c #B17659",
"v. c #945D69",
"b. c #846D63",
"n. c #886E62",
"m. c #8C7365",
"M. c #83736C",
"N. c #8B756C",
"B. c #87766A",
"V. c #927767",
"C. c #847B75",
"Z. c #8B7B74",
"A. c #837C7A",
"S. c #8B7E7A",
"D. c #847672",
"F. c #957E72",
"G. c #9C6560",
"H. c #A66466",
"J. c #A27B75",
"K. c #C2694C",
"L. c #C6744E",
"P. c #C56D54",
"I. c #C57352",
"U. c #CB7553",
"Y. c #CD7A53",
"T. c #CB795A",
"R. c #D27B55",
"E. c #D57C59",
"W. c #D67B60",
"Q. c #8B817D",
"!. c #88817A",
"~. c #93827C",
"^. c #97857C",
"/. c #B18D78",
"(. c #D8825C",
"). c #CC825F",
"_. c #D98564",
"`. c #CA9175",
"'. c #E38A68",
"]. c #15629F",
"[. c #53508A",
"{. c #675788",
"}. c #7C7E83",
"|. c #4555B4",
" X c #53739A",
".X c #4B66C9",
"XX c #445BC3",
"oX c #947988",
"OX c #A17884",
"+X c #398BA3",
"@X c #7B8383",
"#X c #7E83A9",
"$X c #8D8484",
"%X c #8A8787",
"&X c #948C8C",
"*X c #978983",
"=X c #9B918B",
"-X c #9C9594",
";X c #A69487",
":X c #A69B96",
">X c #B19C8F",
",X c #ACA29C",
"<X c #ABA69A",
"1X c #B7A799",
"2X c #B6A08F",
"3X c #8C86AC",
"4X c #AEA6A2",
"5X c #B5AAA3",
"6X c #BBADA5",
"7X c #BDAFA8",
"8X c #B3A6A1",
"9X c #BDB2A9",
"0X c #BDB5A5",
"qX c #D4AB8D",
"wX c #CCB69D",
"eX c #D8B89B",
"rX c #C9A991",
"tX c #E2B79B",
"yX c #C3B3AB",
"uX c #CBBAAD",
"iX c #C8B7A8",
"pX c #D4BCA9",
"aX c #CCBBB3",
"sX c #C5B2AA",
"dX c #DDC3A4",
"fX c #DAC6AB",
"gX c #DBC8B4",
"hX c #DDD1BB",
"jX c #E2C4A5",
"kX c #E3C7AB",
"lX c #E5CAAC",
"zX c #E9CBAD",
"xX c #E8C6A8",
"cX c #E5CBB3",
"vX c #EACDB3",
"bX c #E6CBB8",
"nX c #ECD2B4",
"mX c #ECD2BB",
"MX c #E8D3B7",
"NX c #F1D2B5",
"BX c #F1D5B9",
"VX c #F3D9BC",
"CX c #F1CEB4",
"ZX c #DAC09F",
"AX c #849CC2",
"SX c #F4DBC2",
/* pixels */
"                                      P s u y y u s s u y y u u s u t 6 y u u s d                                               ",
"                            C d u L n s 6 6 9 6 6 5 5 0 1 1 5 5 5 5 5 1 = 5 5 5 6 6 i s d u u L L                               ",
"                      R P d d s x s u t 6 9 5 5 0 > : > ; > * * : * % > > > * & & 5 5 = = 0 = = i L n 8.                        ",
"                    P n i n L x u u 9 5 5 5 0 0 > > & : * * > : $ $ * : * : > : $ o : : & * & & & 5 6 n                         ",
"                  R x y y L y 6 6 8 5 5 7 7 > - > : : - : $ $ , 0 * o * $ o : & * $ o o o @ o o & & & % 6 d d                   ",
"                2.n y 9 9 u y 9 2 1 5 > 2 > > @ * * : o o @ $ : : : * * $ o o @ o o o o o o * o * * * * & u R                   ",
"                I s 6 7 9 9 = 5 7 : : - $ : : : o o o + o o @ o o @ o o o o o o o o o o o o o @ @ * * * * & u                   ",
"              R n y 5 9 9 0 0 & : : - : o o o @ @ o + o : : : @ o o o O o o O o o o O O O o + o @ o @ * * * = s                 ",
"              n 9 9 8 7 7 0 : : o : + o + + o . o o o @ o - @ - * : @ o - $ o o o o O . O + o o o o o * o * & 6 P               ",
"              z 7 0 > 0 0 0 : @ + o + + + . o o @ o o o @ o o + * : : : : : o o $ @ o o o + + o o * o o o o * & =               ",
"            z y 0 @ @ - : , : : @ + o o o o @ @ o o o o o . o o @ o @ $ : : - + $ * o o + o + + o o O O X o 4 * * =             ",
"          m g 7 0 , @ @ @ @ : @ @ @ @ o O + : + o o o o o + + . o o o o o - o + o o o o o o + o o o o . o O X o * = u           ",
"          z 5 > , , , : : : @ @ : @ @ + o o $ o o o o o $ : - - - + - + + o + o o - o . + o o . O o o o o o o o $ * t           ",
"          g 7 : : @ : : o : : , : : : < - + @ $ o $ - $ * 2 2 > ; > > ; $ : - - - $ $ + o @ o o O @ o o X o O o o & =           ",
"          h 7 , : : , , > > 7 1 2 7 7 7 3 7 8 t t 1 1 1 t j j e 8 1 1 2 8 8 3 7 2 > > > ; * : $ o o . . X O . . o % >           ",
"        L t 8 , , : > 8 k P U Z Z N N H H H T T A l c l v N v l j t r t h l x v x x k t j 3 1 3 2 > o o . . . . $ * &           ",
"        z 8 > > & 0 6 x R 5.j.j.s.s.g.d.r.q.<.2.>.>.Y T Y S S S V N N N N B V Z Z Z C V N l k k a i 3 ; . . . . o o $           ",
"        g 9 7 5 0 7 y U 9.j.l.L.I.U.R.T.I.j.d.d.w.4.3.q.9.<.<.>.=.<.9.>.>.,.Y Y J J J U Z Z Z A N c k t % 4 o . . o o o         ",
"        z 5 > > 5 9 n :.s.I.I.L.U.U.U.R.U.P.h.g.t.w.5.4.4.4.q.q.y.q.q.4.q.<.1.<.:.;.-.Y Y F F F S F N a 1 $ o o O X . X         ",
"        z 7 7 7 9 y P :.s.L.Y.).R.R.R.I.K.K.k.f.t.t.e.w.4.4.4.q.r.y.e.q.e.e.4.4.3.1.:.-.-.D D D S F A a 6 % . . . . o o         ",
"        z 7 7 7 9 x C 2.6.L.L.).R.U.Y.U.L.P.P.h.h.t.t.t.t.r.r.y.e.t.t.t.f.t.e.4.4.4.1.1.-.*.D D S B B l i & 4 . o . . o         ",
"        z , 0 9 y x C :.6.L.Y.L.R.U.R.E.R.E.T.K.K.y.t.t.t.t.y.y.y.h.h.g.y.y.t.e.e.4.1.1.;.-.D D F F B p r & $ . o . o o         ",
"        z > 5 7 9 s P 2.l.L.L.(.U.R.E.E._._._.W.P.K.h.h.g.y.i.h.y.K.k.x.i.y.e.e.q.q.1.;.;.Y D S f B f l i % 4 . X O .           ",
"        g 5 0 7 9 s P w.k.L.Y.Y.U.R.E._._._._.W.T.P.k.x.x.x.x.x.x.h.x.x.i.u.q.9.9.9.>.;.=.D S S B B f f i = 4 . X o o           ",
"        e 7 7 5 6 n 3.j.I.Y.I.L.L.T.T.I.x.k.k.P.x.x.x.x.i.i.x.x.i.z.z.z.u.9.0.=.J J H V V N p p p p N l l r $ . . O .           ",
"        e e e 9 y 2.l.k.U.l.:.B A V x h h x m C U >.r.u.u.u.u.u.r.u.9.0.=.V j w 2 , , , < ; ; % = r a f B i 4 . X o o           ",
"        7 g 9 & 9 j.).k.8.C x x v x h j e e 8 7 w j j H 9.r.r.q.9.;.=.k 3 , q w 0 7 e e j e M g t = = a c c & X O . o           ",
"          e 7 : g P s 5 M I T 8.9.9.a.w.9.8.2.U U G m w j G l l K j q w M m G G G I T T U H I G v h e 4 X $ $ X . . .           ",
"            9 5 L 9 . w ,.2.3.d.d.z.d.9.} T P I J 8.<.8.< j G v k < q ] G ( } ( T } I ( M G ( G C V m , : 7 2 . X X o           ",
"            8.a c._.2.Z 2.:.3.>.( O._ ) ^ Q W / / _ v.H.M G =.=.=.K Q ` ` _ ) ) ~ ^ ^ ^ ~ ~ ) M N V G j h C G 1 X : 4           ",
"            8.P ).(.j.,.T.w.2.S G ) {._ ! ].' ' [ / v.H.M r 9.r.0.j Q ` ` |.].[.' W W ^ ) o.~ q i l v K A E E a % t 6           ",
"            L E _.).T.E ).k.6.3.0.0.O.O. X+X[ [ T 8.G.0.3 9.P.y.4.B q ) ` XX~ / / M Q ) o.[.` l a k c l E S D N % i #           ",
"              R (.(.(.6.*.U.K.h.x.H.H.v.oXAX#X3X3X3XH.l =.E.K.y.4.=.K q ) |.XXXX.X.X{.O.{.[.O.( F V l J E E D F % 6             ",
"              Y (.(.(.(.4.*.K.R.P.x.i.u.H.OXoXOXOXOX( N T.U.K.y.=.*.l 3 j / _ _ O.O.O.O.O.} ( J V l H *.7.E D A % 4             ",
"              E (.R.R.(.(.K.;.1.r.r.i.i.u.e.4.1.1.D B i.P.W.T.x.y.=.F a r r a p N B H H *.J V V V ;.;.*.F F P B 3 z             ",
"              a.L.R.R.(.E.(.'.L.e.<.=.D F D Y >.a.d.W.qXtXxXCXwX2XJ.m.p.| } G V a a l l f B J =.9.;.-.D E F F A R               ",
"              qX).I.I.).Y.R.(.'.'.'.`.`.`.qXeXxXxXnXBXzXzXnXMXpX>XF.N.N.Z.S.oX~.N.b.p.8.8.0.8.;.J *.D J U F P R                 ",
"              eXrXrXwXwXqXtXxXxXvXmXNXSXmXVXVXnXcXvXlXkXxXzXMXpX;XF.N.m.N.M.Z.~.$X~.*X*X~.*XF.Z.N.p.X.m.M.D.n.|                 ",
"                /.hXfXhXhXfXcXMXnXBXBXCXNXnXnXMXzXlXxXdXpXxXgXrX/.F.p.p.@.#.Z.$XQ.*X*XS.F.*XQ.Z.Z.D.A.A.%.!.X. .                ",
"                3.rXgXdXfXfXzXMXvXvXvXcXcXfXcXlXjXdXjXjXxXmXbXpX2X^.V.n.p.p.#.C.!.oXS.S.S.S.Z.Z.N.b.#.A.Q.D.I                   ",
"                F c.dXeXdXdXfXxXkXkXcXvXvXvXzXxXdXxXlXnXNXnXpXiXrX*XF.F.V.p.p.m.S.S.oXQ.S.C.D.D.#.#.#.M.Z. .                    ",
"                  9.tXdXdXfXkXzXvXvXBXNXvXzXkXjXlXzXlXlXnXfXsXuXyX*XS.F.F.V.m.p.n.Z.S.$X$XS.C.B.M.B.B.D.N.I                     ",
"                  E rXlXZXxXzXzXvXCXCXNXzXjXxXkXkXcXcXkXbXpXsXaXaX*XN.oX*X*X^.m.p.n.N.Q.Q.Q.!.C.M.M.#.Q.b.                      ",
"                  f c.BXdXdXcXzXvXzXzXxXlXlXcXcXkXcXcXcXgX6X6XuXaX>XN.Z.$X&X=XoXN.n.p.B.Z.!.Z.B.B.%.C.$X|                       ",
"                    V.NXzXlXnXnXNXzXlXlXlXlXvXcXvXvXcXbXaX9X9XaXaXyX~.B.A.&X-X&X~.m.m.p.m.B.!.C.#.C.*X*XL                       ",
"                    /.vXgXMXVXVXNXNXNXMXnXmXnXnXvXvXvXpXyX9X9X9XuXuX:XZ.D.%X-X-X*X~.N.m.m.m.V.~.Z.$X<X;XL                       ",
"                    ;XhXhXVXMXMXnXMXgXfXfXpXwXjXnXbXgXaX7X7X7X9X9XyX9X=XM.%.%X&XS.C.C.C.C.Z.Z.~.!.&X4X%X                        ",
"                    0X0X0XfXZXMXMXgXfXfXwXwXkXnXbXbXaXyX6X7X6X6X9XyXyX5X*Xb.@.+.$.}.}.}.%.}.%.%.&.@X-X%.                        ",
"                      <X<X4XhXhXSXVXzXxXlXzXbXmXcXpXaXsX7X6X6X7X6XsXsX7X1X*Xm.X.@.#.%.!.%.!.!.C.$.&.@X@X                        ",
"                      1XfXfXZXZXzXdXjXxXzXzXCXvXcXbXaXsX6X5X4X8X8X5XsX7X5X:X^.N.n.n.n.m.Z.Z.!.!.#.$.&.&.                        ",
"                      1XwXMXlXZXpXjXxXkXzXlXvXnXbXpXuXsX5X8X,X4X8X6XsXsXsX,X=X~.V.V.m.m.V.V.B.B.#.@.$.&.                        ",
"                        1X0XMXMXvXcXfXkXzXcXcXvXbXpXsX6X8X,X,X4X8X6X6XsX6X4X=X~.Z.~.B.m.B.b.C.#.X.@.&.+.                        ",
"                          2XwXVXSXVXvXcXfXkXzXcXbXaXyX9X4X4X8X8X8X6XsXsXaX8X-X&X!.M.#.@.#.D.!.@.@.X. .X.                        ",
"                            V./.NXNXmXmXSXmXfXiXiXuX9X6X4X4X:X:X:X8X6XaXaX5X:XC.$.@.@.M.N.Z.X.X. .P C                           ",
"                            7.6./.tXSXmXbXmXBXzXpXwXyX1X:X:X-X-X:X5XsXsXiX>XD.#.b.M.B.M.B. . .{ s p N                           ",
"                            :.6.6.j./.pXbXmXmXcXvXfXsX:X-X&X&X&X:X1XsXsXsX*XM.M.M.#.M.b. .] b p d p                             ",
"                                6.6.6.c./.eXMXMXeXpX1X=X*X$X%X%X&X,X1X>X*X$.$.$.#.D.+.{ L n N p c                               ",
"                                6.l.L.l.s.c./.wX1X2X;X*X$X$X$X%X=X:X=X%.$.%.$.$.+.[ L b v N c c                                 ",
"                                  6.l.k.l.l.s.a.V.V.B.M.%.%.%.%.A.A.$.+.+. .[ { m b V V V v d                                   ",
"                                      l.l.j.s.s.5.5.9.8.| } { ] ] ] ] ] m v v v C C C b c                                       ",
"                                            j.j.s.5.5.3.3.:.,.U Z V v v m V G V G C n l                                         ",
"                                              3.3.5.5.a.9.8.2.2.T I I G G G m v k u t                                           ",
"                                                                                                                                ",
"                                                                                                                                "
};
