/* XPM */
static char *_f64e489af234e6cef204e5274da749a6f8DioIBe6Ni4eDI[] = {
/* columns rows colors chars-per-pixel */
"64 64 228 2 ",
"   c None",
".  c #0B0706",
"X  c #140E0D",
"o  c #1A0F0D",
"O  c #16110E",
"+  c #18130F",
"@  c #0E0D13",
"#  c #180F11",
"$  c #110E12",
"%  c #161211",
"&  c #1A1513",
"*  c #1E1916",
"=  c #1B1619",
"-  c #1E191A",
";  c #16161C",
":  c #221615",
">  c #221A16",
",  c #2A1C16",
"<  c #211518",
"1  c #231C19",
"2  c #2A1D1B",
"3  c #291717",
"4  c #361B18",
"5  c #26201C",
"6  c #2E251E",
"7  c #2C211C",
"8  c #33231D",
"9  c #3B231E",
"0  c #39291E",
"q  c #1C1921",
"w  c #281F20",
"e  c #211D25",
"r  c #2C2422",
"t  c #2A242B",
"y  c #29262A",
"u  c #342422",
"i  c #3B2523",
"p  c #352A22",
"a  c #3C2A24",
"s  c #3D2B2B",
"d  c #3B262A",
"f  c #3D3329",
"g  c #2F3335",
"h  c #363337",
"j  c #3A2F33",
"k  c #4A1C1C",
"l  c #45261E",
"z  c #432523",
"x  c #432B26",
"c  c #4C2C24",
"v  c #452D2B",
"b  c #492E2B",
"n  c #482328",
"m  c #552B27",
"M  c #45322B",
"N  c #4D322D",
"B  c #473428",
"V  c #53342D",
"C  c #5B352B",
"Z  c #5C3A2D",
"A  c #583528",
"S  c #442E30",
"D  c #4C3432",
"F  c #4B3639",
"G  c #4D3A39",
"H  c #463734",
"J  c #523532",
"K  c #5B3434",
"L  c #543935",
"P  c #5C3A33",
"I  c #543B3B",
"U  c #5B3D3B",
"Y  c #583639",
"T  c #643A2D",
"R  c #61362C",
"E  c #643B34",
"W  c #693D34",
"Q  c #633D3B",
"!  c #6D3E3A",
"~  c #613634",
"^  c #743836",
"/  c #622F2E",
"(  c #4E453E",
")  c #5D423E",
"_  c #59433A",
"`  c #66432F",
"'  c #6E4134",
"]  c #63423D",
"[  c #6B423C",
"{  c #684538",
"}  c #72443D",
"|  c #794D3D",
" . c #79483B",
".. c #7E523B",
"X. c #323C45",
"o. c #573E41",
"O. c #713C42",
"+. c #37424D",
"@. c #3D4A56",
"#. c #454A4E",
"$. c #554242",
"%. c #5C4243",
"&. c #584B47",
"*. c #454C57",
"=. c #544D50",
"-. c #545455",
";. c #54534F",
":. c #634442",
">. c #6C4543",
",. c #654945",
"<. c #6B4A45",
"1. c #6B4A4A",
"2. c #674B4B",
"3. c #734642",
"4. c #7E4543",
"5. c #754B43",
"6. c #794B45",
"7. c #724B49",
"8. c #7A4C49",
"9. c #754449",
"0. c #685245",
"q. c #7D5245",
"w. c #7B524B",
"e. c #74544B",
"r. c #625C5B",
"t. c #6C5558",
"y. c #775857",
"u. c #6F4E50",
"i. c #73675E",
"p. c #4D5E6D",
"a. c #465666",
"s. c #5C5E64",
"d. c #545A62",
"f. c #4F5E72",
"g. c #635D62",
"h. c #6D5C62",
"j. c #735D60",
"k. c #57626A",
"l. c #4F6273",
"z. c #536374",
"x. c #54657B",
"c. c #5B6B7C",
"v. c #586A79",
"b. c #546A76",
"n. c #6B6463",
"m. c #6E6966",
"M. c #666569",
"N. c #646A6E",
"B. c #6C6A6D",
"V. c #686668",
"C. c #746C65",
"Z. c #746D6B",
"A. c #756560",
"S. c #77716D",
"D. c #656B73",
"F. c #6C6C72",
"G. c #666C78",
"H. c #716E72",
"J. c #786F70",
"K. c #65727B",
"L. c #6C757D",
"P. c #6A7072",
"I. c #737174",
"U. c #787373",
"Y. c #73747B",
"T. c #79767A",
"R. c #7A797F",
"E. c #893B3C",
"W. c #85453D",
"Q. c #83513A",
"!. c #884A47",
"~. c #825246",
"^. c #84544C",
"/. c #8C544C",
"(. c #8B5A4C",
"). c #865849",
"_. c #935B4C",
"`. c #96594A",
"'. c #835A54",
"]. c #8B5B53",
"[. c #865653",
"{. c #945C54",
"}. c #985D51",
"|. c #965C59",
" X c #984946",
".X c #A7554F",
"XX c #A15A53",
"oX c #9B6146",
"OX c #9D644C",
"+X c #99664D",
"@X c #8B6257",
"#X c #946455",
"$X c #9A6554",
"%X c #9C6954",
"&X c #94635A",
"*X c #9A655A",
"=X c #9C6A5A",
"-X c #A3654C",
";X c #A56A4E",
":X c #A9694E",
">X c #A8664C",
",X c #A26555",
"<X c #A46B53",
"1X c #AA6C54",
"2X c #A36758",
"3X c #AD6A59",
"4X c #A55F60",
"5X c #856A6B",
"6X c #956765",
"7X c #877C78",
"8X c #99796A",
"9X c #B16862",
"0X c #80807E",
"qX c #5A6C81",
"wX c #5E7582",
"eX c #486680",
"rX c #637483",
"tX c #6B7A85",
"yX c #6A7C8C",
"uX c #687984",
"iX c #7D7B81",
"pX c #737B88",
"aX c #6A828D",
"sX c #77838B",
"dX c #6D8593",
"fX c #788A95",
"gX c #7B93A2",
"hX c #82878A",
/* pixels */
"                                                                                                                                ",
"                                                                                                                                ",
"                                    ] B B B p 8 p u 7 p       0             B f                                                 ",
"                                _ B f B f 8 7 6 7 7 1 2 6 6 7 7 6 6 p p p a p 6 0 p f B B                                       ",
"                              _ 0 0 6 7 , 5 * 5 > 1 > 5 > > * 5 > 5 5 5 6 6 6 r 7 7 6 0 0 p 0 B                                 ",
"                          0.a 8 8 7 , , * * > * 5 > * > * * * * * 5 * 1 r 1 7 7 * 5 7 , 6 6 6 5 7                               ",
"                        c 7 8 5 > + * * * & & & & & & * * * * * > * & * 5 > > 5 * 5 > 5 5 5 5 6 7 6 0                           ",
"                      0 6 , > * & + * * > & + & & & + * * & & * * * * & * - * * 5 * * + 5 * 5 * , 5 8 x                         ",
"                    , , 5 > * & & & & & * & & * + + + * & & * * * * & & & & & & * * 5 & * * * * & , 5 7 0                       ",
"                  7 & * 5 & & & & O + * * * + & & O * + & + * & & & & & O & & & O * * * * * O & + > > 5 0 p                     ",
"                6 > & 1 * * * > * & & * & + + O & & + * * + & & & & & % % & & & O & + & * * + + & & * 7 7 5                     ",
"              1 1 * 1 > + * * * & & 5 * & + & * & * & * & * & % O O % & & + & + & & O & * * O O * * * & * ,                     ",
"              1 1 * 5 1 * 5 * * * * * * & * * & & & & + O & & % & % O & + + & % & O O % & % O O & + & * * 5                     ",
"            7 1 & & * & , 5 1 * + * & & O & & & & & & O & O + & & & & + + & + % % O O $ O % O O O % + & 5 8                     ",
"            > O O & & & * & & * & * * * * & O O % % % % O & & % O & O + + O O % O O $ $ O O X O + O O * 7 M                     ",
"            > - & & & > * > * * & > * & * * O O O O O O & % % & % O O O O & + & O % O O O O X X O O O * 6 B                     ",
"            7 1 & * 1 5 - - 1 - - 1 & & * & O & O X & & % % % % O & O & + % % 1 < 1 < & & & % X O O * , 8 _                     ",
"          2 - & * 1 2 1 * 5 2 1 5 * * * * % O O # & % & % X O & & + O + & & 1 2 u u i p i 8 2 2 7 , 6 p f                       ",
"          1 * % & - 1 1 - * * 2 - & & & % X % X & = % # + + % + O O & + + : 2 r i v J J b b v x x x x 8 .                       ",
"          1 * * 1 1 1 1 * * * & & * - & & * O O % % & % % % O % % O O + & : 3 u s b J L K C V C A B Z 0.                        ",
"          r w 2 1 1 1 1 1 > < 1 1 > & = & % % % % % % & % % O O O O O & & : 1 u a z b K P Z P Z Z Z ' @X                        ",
"          2 - 1 1 1 2 2 1 - 2 = & % = & & & % $ % & & & % % O O O + O + & : 2 7 8 i b V Z E E W W E ` Q.                        ",
"          * 1 2 5 7 r 1 1 - * & & = & & * O % & % % % # % # % & & + O + & 1 1 2 2 8 x N Z ~ E E W W W ' (.                      ",
"          5 1 - 2 7 1 & 1 * % * 1 * # # & & % % X $ X * * % & % & + O & * 1 , , 3 2 i b K R E W W W W W ' q.                    ",
"          1 1 > 1 7 = * - * * 1 & O % - & % = % % % % - & & % % * & & & * * * & > 7 i N P ~ Q W ' W W T E '                     ",
"          r r r 7 r r 2 5 1 * * 1 = 1 * O & O O % % % & & & % % & & & = * : : : 3 i N P P E ! ' [ ' T C C Z {                   ",
"          2 2 2 7 7 5 1 1 - & - & & = = & & & + % % % ; * * = % - * & & * * , , s I U U ~ E W [ [ C l l 8 4 C.                  ",
"          r 2 1 1 > - * * % * & 1 1 % * * & * % @ % & & ; ; & 5 1 * = * * > 3 s O.! Q Q Q Q E ~ c 4 , : o , h -                 ",
"            : & & - % 1 * & 1 5 5 & % 1 - * + % & & O & * - 5 ; = = & * - % > d M v n x z i z 8 3 3 w 2 u d $.p (               ",
"            = * & * > e = & * 1 - % * 1 * % & & * - = = % ; q ; = ; q q = q ; = q q e t y t t r y y q ; h t @ j 0X              ",
"            * * & * * - = * 2 * & = & + & & $ : > & # @ @ @ % ; & - % = < # u I >.:.:.] U U P J b u & 4 x J 1 h 0.              ",
"            - % = * & % - * % X % & % = & x ~.!.| W v d y X . & 1 1 * 2 < : a Q 9.6.3.[ Q ~ K b 4 i , i J V 1 h _ .             ",
"            * * & * % * 1 % % % % = = = J  X!.4.3.! ! :.$.-.#.< X & > > & 2 i J 9.3.6.} [ Q T C A c z c A R , v Q Q             ",
"            & * & & & = % * & + % < # n }.E.O.[.3.m K :.:.G s.rX*.y X + * 2 u z Q 3.6.}  .} ` ' T A c m A R 3 v ~ R e.          ",
"              * * + * % + * % 1 % & # /.E.E.|.4X^ E m O.>.o.U t.iXsXk.g % % 1 v :.3.9.6.} } } { ' C R C R m 3 M :.i.C.Z.        ",
"              & + % : % % % & > & : < O.E.!.XX|.^ K Y ~ 8.].&X@X@X5XhXfXrX*.y s :.9.8.8.6.6.} } [ W T R A z L m.S.H.H.C.C.      ",
"              * o & > % % + % + & 3 : J  X X9XE./ ~ o.n 6.*X[.&X*X|.y.t.L.dXdXuXG.V.y.u.3.3.} [ ! E { ) ,.r.C.C.m.m.B.C.C.      ",
"              > & + * & % & & # # & < z !..X9X^ m n n d Y !.^.|.*X6X'.o.I &.g.L.yXyXyXuXG.g.u.1.t.n.V.V.B.C.m.m.m.H.Z.Z.C.      ",
"                > + & & O % X O o # : z Q XX.XE.m k n m 4 / [.&X&X6Xy.:.I %.J o.1.h.H.L.uXyXyXrXL.K.P.P.B.m.n.m.J.U.J.Z.S.      ",
"                * * + > X O X X # # # 8 Y 8. XE.O.O.O.!.W } ].|.&X|.'.:.I o.o.:.:.1.9.u.t.h.D.qXaXk.N.P.N.m.m.S.J.Z.F.H.T.      ",
"                & * + + O O O X # # : 8 Y 3.[. X!./.!.4.!.8.!.[.|.|.y.:.o.F G o.I :.1.u.w.7.1.O.h.F.M.B.B.m.S.U.J.B.H.iXU.      ",
"                + + + O O O & % # & 2 x U w.[.{.XXXX!.{.!.!.3.^.].@Xy.%.o.$.S H I o.:.1.1.1.9.:.j.I.B.F.B.I.Y.F.V.Y.pXY.Z.      ",
"                > & + + O % + + + & 3 b <.].&X|.}.}.`.!.y.t.o.4.].].'.%.G o.G F Y o.:.o.Q 1.<.1.y.U.F.H.Y.T.I.B.F.Y.tXH.&.      ",
"                6 , + & + + & & : 3 u L y.&X*X*X*X|.*X|.5XyXqXj.e.[.y.,._ I H o.o.Y o.o.Y :.:.<.e.U.Y.iX0XT.H.P.H.T.H.g.V.      ",
"                  5 > + + : + : > > 0 _ @X=X=X=X$X*X2X,X$X6XfXgXiXy.<.) %.%.F %.%.U ) U U :.:.<.,.t.0XsXY.D.L.L.T.Y.V.r.r.      ",
"                  0 > 7 > + > > 8 a c e.%X%X=X=X=X*X*X*X*X}.|.iXgXfXZ.D H %.o._ I U ) :.:.,.<.e.:.2.hXL.V.P.Y.T.P.V.r.&.&.      ",
"                  ( 0 8 9 8 > 7 9 B e.@X#X%X=X=X=X&X&X&X}.&X].^.A.sXgXtX=.F N G %.%.2.,.,.,.,._ ) sXsXL.Y.T.I.F.D.M.n.M.        ",
"                  e.` ` A A _ ` | ).+X#X%X#X=X=X&X#X].].]./.^.w.e.:.g.aXgXK.=.G I :.,.,.) ] U &.aXdXyXpXL.G.D.N.D.M.r.r.        ",
"                  8X). .` A ` oX%X1X<X<X%X%X#X=X&X#X].^.q.q.w.5.,.) J G -.uXaXv.N.H H $.2.i.U.sXdXaXc.p.p.v.G.c.k.k.r.          ",
"                  +X+XQ. .| ..+X+X;X;X%X%X%X$X%X#X].].w.w.e.<.:.] _ _ L b D &.K.aXv.z.G.uXyXyXwXuXaXL.M.d.v.c.qXb.              ",
"                  +X%XOXoXoX+X+X;X<X<X<X%X+X$X#X#X].^.e.5.<.:.] I I D L D D I D.wXc.c.qXqXqXx.x.x.qXK.D.s.v.G.k.                ",
"                    +X:XoXoXoX;X<X1X1X<X%X%X%X#X{.[.^.e.7.<.] _ L L D D J L D &.K.K.v.x.x.z.x.x.x.x.x.p.d.s.s.-.                ",
"                    | OX-XoXoX-X:X:X1X1X<X$X$X$X_.).q.5.<.] U U D M M v v S M v k.b.z.l.f.f.l.l.f.l.l.a.#.#.B                   ",
"                      { oXoX;X-X>X1X1X1X,X,X$X}.].^.q.<.] ] U L V B M s a s s u j k.p.a.a.*.@.@.@.@.*.*.h                       ",
"                        ` ).;X>X>X>X>X3X>X,X$X}./.^.8.<.] U L N D D D S d d d u 3 h *.@.+.+.X.X.g eXa.*.                        ",
"                          x Q.OX>X>X,X>X,X$X}.(./.~.6.[ ] P P V J D D D D S s s u :                                             ",
"                              } (.-X-XOXOX}.`./.~.6.5.[ ] U L J b N N S N S v d 2                                               ",
"                                V | (.`.`.`.(.(.q.6.>.] E Y Y J D N b v n a u                                                   ",
"                                    P | (.`.(.).6.} [ [ ] U L J D D b v a u                                                     ",
"                                        [ 6.~.Q.6.5.[ ] U L L J N b v x i .                                                     ",
"                                          J { 5.} ] Q Q U L P J N v b x 2                                                       ",
"                                            3 J ] { E U Y P L J b v a 4                                                         ",
"                                                9 N V L L L J J b z 8                                                           ",
"                                                                                                                                "
};
