/* XPM */
static char *_e386dc136d0407ee7a45c432d4d199cWp9Dl3YgfdBs2dyX[] = {
/* columns rows colors chars-per-pixel */
"64 64 236 2 ",
"   c None",
".  c #010001",
"X  c #0E0D0C",
"o  c #0C0A07",
"O  c #120E0C",
"+  c #1C0F0E",
"@  c #14110E",
"#  c #19120E",
"$  c #120F10",
"%  c #190F10",
"&  c #151211",
"*  c #1B1512",
"=  c #1E1915",
"-  c #1D191B",
";  c #17131C",
":  c #210F0F",
">  c #231614",
",  c #221A16",
"<  c #2B1D15",
"1  c #231D19",
"2  c #2A1D1A",
"3  c #201718",
"4  c #321D17",
"5  c #20150F",
"6  c #25201D",
"7  c #2C221D",
"8  c #32241D",
"9  c #3A251D",
"0  c #322419",
"q  c #161621",
"w  c #221C20",
"e  c #2D2421",
"r  c #27232A",
"t  c #322522",
"y  c #3B2621",
"u  c #332A23",
"i  c #3B2A24",
"p  c #3E2B2B",
"a  c #36272A",
"s  c #3D332B",
"d  c #312C31",
"f  c #39343A",
"g  c #471F1F",
"h  c #43291D",
"j  c #563410",
"k  c #432C24",
"l  c #4B2E23",
"z  c #432D2A",
"x  c #4B2A29",
"c  c #562B26",
"v  c #45322B",
"b  c #4B332D",
"n  c #493329",
"m  c #53342B",
"M  c #59352A",
"N  c #493534",
"B  c #533B34",
"V  c #5C3D34",
"C  c #5C3F3B",
"Z  c #543A38",
"A  c #592730",
"S  c #633C2E",
"D  c #623D34",
"F  c #673A3A",
"G  c #72363A",
"H  c #77393B",
"J  c #682827",
"K  c #5C423C",
"L  c #584337",
"P  c #644136",
"I  c #6B4235",
"U  c #62443D",
"Y  c #6B453B",
"T  c #6A4A3D",
"R  c #73463B",
"E  c #734B3E",
"W  c #7B4B3D",
"Q  c #774339",
"!  c #683F43",
"~  c #533E45",
"^  c #3C4248",
"/  c #3A4C58",
"(  c #444548",
")  c #5C4242",
"_  c #564848",
"`  c #484B51",
"'  c #4C5559",
"]  c #575355",
"[  c #5F4C4F",
"{  c #634542",
"}  c #654A44",
"|  c #6C4B43",
" . c #6C4D4A",
".. c #694647",
"X. c #734C43",
"o. c #7A4E44",
"O. c #744C4A",
"+. c #784A48",
"@. c #6A5248",
"#. c #7C5243",
"$. c #75524D",
"%. c #7C524B",
"&. c #76554A",
"*. c #655859",
"=. c #7C5554",
"-. c #795B54",
";. c #6F4F54",
":. c #7C6254",
">. c #4C5B65",
",. c #535E69",
"<. c #5A636A",
"1. c #596877",
"2. c #666869",
"3. c #646D77",
"4. c #69757A",
"5. c #77757A",
"6. c #796B67",
"7. c #88393A",
"8. c #854C3D",
"9. c #81513D",
"0. c #8E3C41",
"q. c #874946",
"w. c #964A4A",
"e. c #835244",
"r. c #8C5545",
"t. c #84544C",
"y. c #855A4C",
"u. c #8C5B4C",
"i. c #8B574A",
"p. c #945D4B",
"a. c #9A5D4B",
"s. c #945748",
"d. c #845652",
"f. c #8B5751",
"g. c #845A52",
"h. c #8C5C53",
"j. c #895C59",
"k. c #935D54",
"l. c #975A55",
"z. c #9A4F52",
"x. c #A85A55",
"c. c #A75450",
"v. c #9C624D",
"b. c #96634D",
"n. c #8B6152",
"m. c #866557",
"M. c #946255",
"N. c #9B6455",
"B. c #93625B",
"V. c #9C655A",
"C. c #986A58",
"Z. c #A4644D",
"A. c #A8684E",
"S. c #A46654",
"D. c #A96753",
"F. c #A56955",
"G. c #AA6A55",
"H. c #AB665A",
"J. c #A46B5A",
"K. c #AC6C5B",
"L. c #A4655A",
"P. c #B36D55",
"I. c #B26E5C",
"U. c #B6675D",
"Y. c #AE705E",
"T. c #A97258",
"R. c #B4725B",
"E. c #B9755C",
"W. c #B7775C",
"Q. c #986862",
"!. c #9A7A69",
"~. c #887776",
"^. c #92766F",
"/. c #AD6B61",
"(. c #B46C63",
"). c #B96F66",
"_. c #AC7361",
"`. c #A77C6D",
"'. c #B47262",
"]. c #BA7663",
"[. c #BC7A65",
"{. c #B47967",
"}. c #A17F74",
"|. c #C07C65",
" X c #89857C",
".X c #91867D",
"XX c #B2897A",
"oX c #BA8A6F",
"OX c #C28571",
"+X c #C28870",
"@X c #D4A174",
"#X c #727D85",
"$X c #6E7C87",
"%X c #778389",
"&X c #7C8892",
"*X c #718E97",
"=X c #719DB6",
"-X c #898B85",
";X c #899699",
":X c #969999",
">X c #928F8B",
",X c #BC9988",
"<X c #9BA19E",
"1X c #B3A797",
"2X c #ABA899",
"3X c #949EA0",
"4X c #8DA1A5",
"5X c #95A3A6",
"6X c #9AADB2",
"7X c #A6ACA7",
"8X c #B2B4AB",
"9X c #BCB9AD",
"0X c #AAB8B8",
"qX c #BDBCB1",
"wX c #B7BCB7",
"eX c #B2AFA5",
"rX c #CE9C8D",
"tX c #D1A99C",
"yX c #C3BBAC",
"uX c #CBB5A6",
"iX c #C4BEB2",
"pX c #C8BEB4",
"aX c #BDC2BA",
"sX c #BEC0B3",
"dX c #C4C4B9",
"fX c #CBC9BE",
"gX c #C7C3B7",
"hX c #CCCDC4",
"jX c #CECDC8",
"kX c #D2CDC3",
"lX c #D2D4CB",
"zX c #D7D6CB",
"xX c #DADAD2",
"cX c #CBD4CC",
"vX c #DDE2D6",
"bX c #EFF4F3",
/* pixels */
"                                                                                                                                ",
"                                                                                                                                ",
"                                s u u 8 u 7 u 8 7 u 8 7 7 t 0 7 7 2 6 0 8 7 7 7 0 0                                             ",
"                              u 8 7 u 7 7 u 7 7 7 u u e 7 6 6 6 6 7 7 6 7 0 < 6 6 6 0 <                                         ",
"                      8 e 7 7 7 u u e 7 6 6 6 7 e 7 7 1 , 1 6 1 = 6 7 6 1 7 6 6 , < , ,                                         ",
"              B v 8 u 7 6 1 1 6 7 7 6 6 1 6 e 7 6 6 6 1 1 1 1 = = = = 7 = > 5 < , 6 , < 6                                       ",
"          T n n i 0 u 6 6 = = = 1 1 1 6 6 6 1 = = 6 6 6 1 1 1 = 5 , # < = = # # = 5 = , # 5 < <                                 ",
"          n s v 0 e e = = = = = = 6 = 6 1 1 - = = = 1 = , = = = 1 1 = # 6 6 , * = 5 , < = @ , < , 0                             ",
"        L k i u 6 6 6 = * * * * * * * * = = = = = = 5 6 , 6 6 = # 1 = * @ = , = = , < , 5 @ # , > >                             ",
"        v s s 7 = 6 r * & * & * * * * 6 6 = = - , 6 = 1 1 * = = # 1 1 = @ @ @ = = # , , = @ # # > # #                           ",
"      L n v i 1 = 6 = * & & * 6 6 = * * = * = = = = = 6 6 = = * * = = = , = @ @ = = 5 = = # # @ # # #                           ",
"      T b N 8 1 = 6 = * * * = 6 = * - * * * = = = = = , 2 = , 5 = = = * = = # * = = @ # # @ # @ # 5 #                           ",
"    } K L s < , = = * * & * 6 & * & * 6 = * * 6 = * = = 6 1 1 1 = = = * * = @ * = # # @ # # # @ # # # @                         ",
"      L v i 1 = = * * * * * & * * * = = # * * * * * * # = = = = * # * * * = = * = = @ @ # # # @ # # @ @ #                       ",
"      L k 0 6 * * & * * # & & # * * * # * = = * @ = = 6 = = , = = = # * * = * = @ @ # # # @ @ # @ @ @ # + 5                     ",
"      @.L s 6 = = = * # = = = = = * * # * # # * # = 6 , 1 = # = = = = # * * @ * @ @ = @ @ # @ @ @ o @ @ # =                     ",
"      &.U L 7 6 1 , 2 1 > 2 = = = # = # @ # * = = * = = = = # # = = = 6 = 6 * * * * @ @ @ * @ @ + @ @ O O # =                   ",
"      m.:.@.v u s k n b z y 4 8 > = = # = @ * > * * = * = 1 1 , = * # = = = * = * # @ @ @ @ @ X + O # O # # =                   ",
"      }  X:.T @.-.W #.W W o.P m 4 > = = = = = = = = = , # # 1 6 6 = * @ 6 * * & @ @ @ @ @ @ @ @ @ O o # # # =                   ",
"        T m.C..XY.J.N.F.G.K.M.X.b 0 > = = = = , = 1 = = = # # = > > = * * * & * * @ X @ @ @ @ & o O # O @ # #                   ",
"          s .X@XW.R.T.W.W.Y.N.y.B 9 > 1 1 = = 1 = = 1 6 = = = * = * * * @ * & & @ @ @ @ @ @ @ @ @ @ @ # X X *                   ",
"            yXoXE.R.E.W.Y.T.u.#.P 9 < 1 > = = = 1 = = = * * = = # # & & * @ @ & & @ @ & @ @ @ @ @ @ X @ @ O #                   ",
"            tX+XE.E.W.R.T.J.e.R n 9 8 7 > = = * = * * * * * & = * = @ * & & @ $ $ @ @ & @ @ @ X @ X @ @ O @ + #                 ",
"            rXW.W.W.W.R.Y.F.e.S l 9 t 2 = 1 1 > = = * = - = @ * * * @ & & & & & @ & X @ @ @ X & @ X X @ O O + @                 ",
"          tX+XE.R.W.W.P.K.v.W L k i 9 7 > 2 e 3 = 1 3 = * = % * & * * X * & @ @ X & & & X X X X @ o O O O O # #                 ",
"          rXE.W.P.P.P.R.K.M.I m y y 0 7 1 3 1 = 1 1 1 = * = # # * @ * # @ & @ X & & & X X & @ X @ O X X o o O +                 ",
"          tXR.].I.P.P.R.I.K.e.m l 8 8 7 > , w 2 > 1 = 1 1 = * & * @ # @ @ & X & @ X & X X @ & X X X o O o O O O                 ",
"        [ Q.u.N.Y.R.K.'.'.'.J.R y u 8 7 2 1 1 1 1 1 1 1 1 * * * & & & & * & X @ & @ X $ @ X X @ @ @ O o O O O O                 ",
"        t i l M #.Y.Y.R.K.'.R.J.m < 1 > > 1 1 w 1 > 2 2 - > = & * * * & X X & X X q X X $ @ X X X @ X X O O O O                 ",
"        e @.P | V o.K.I.K.Y.(.(.f.9 * & & * - 1 - & > = = = = > * & O @ & X @ X X X $ X X $ $ @ X @ X X o O O +                 ",
"        s N z v 8 4 9 k y t 0 2 3 ; ; q q q q q w - q - ; * * * * * & $ & & & & & X X X $ $ $ X X X X X X o O O                 ",
"      1 r r N l M V m b m F | X.X.{ i 1 - 1 1 1 1 1 - * * * 2 : % % - & & & X & & & X $ $ $ X X X X X X O O O O                 ",
"      f ] @ b.R S I I p.{.[.OX|.{.J.P 4 1 e 2 2 1 * o - i #.l.q.M y + $ $ % $ & $ & X X $ $ X O X $ X O O O O O                 ",
"      d } < b.8.c l Q T.{.[.|.|.{.V.F y e t w = * e ' ] t.q.H l.l.q.F : $ O & * $ % $ X X X X X o X X X O X o                   ",
"      | v l v.a.b.v.A.E.[.|.].'.(.N.V 2 t e * = ' %X6. .f.G ! ).(.z.z.! + $ $ & O & $ X X X X $ O X X O X # @                   ",
"    {.s.2 V p.{.W.P.R.].|.[.].)._.f.B w a > ; $X%X;.{ O.y.H G H.(.w.w.x.g $ & O & O $ X X X $ X o X X X X @ =                   ",
"xXiXXXJ.M X.Y.+XW.E.].[.[.].'.'.K.l.D p ( ^ ` ] ) ..=.j.i.Q G q.U.w.0.x.c O & * * O O X X O O o o X X O O @ @                   ",
"pXgXfXeXV.8.'.].E.E.[.].].R.(.H.H.Q.~.*X3.] _ ..;.f.Q.`.w.g G w.(.z.7.z.c > * * % $ $ O $ O o O X o O O # 5                     ",
"9XgXiXfXqX!.{.R.E.U.R.U.x.H./.}.:X6X4X#X~ _  .=.j.Q.l.{.q.x A J c.c.7.H A 2 * 3 % % O O O o X O o X O # # >                     ",
"yXgXgX9XdXfX,XoXXXD.x.z./.>X5X6X5X5.=.$.{  .@.j.j.l.l.V.J A 0.7.c.w.G ! Z z 2 * % O o O O O O O o X @ #                         ",
"yXiXkXkXiXqX9X8X7X&.~.:X6X6X3X~.f.j.-.&.| { O.j.j.f.V.f.8.H.).U.x.w.H F ! a : * % O O O O O o O o O #                           ",
"gX9XyXzXkX9X8X8X8X4.*X0X:X^.B.B.Q.g.#.} .. . .d.j.f.V./.x.U.x.c.c.w.G F ~ p > % O O O O o O O O O O >                           ",
"yXfXyXkXzXhX8XeX8X:X5.^.Q.V.V.B.h.%.=.{ ..@...$.f.f.V.(.).U.(.x.0.G F { ) Z t * O O O % O O O O O O >                           ",
"j fXjXdXzXzXdX8XeXeX=.k.V.V.l.n.g.%.$.U { ) .. .=.f.l.z.z.L.c.0.G ! ..) C Z a 1 % O $ O O O O O + *                             ",
"zXfXzXfXgXzXzXqXeX8X6.h.V.M.f.h.%.X. .} { U K  .$.d.d.%.5.[ F ! ! ....{ C Z p 1 % % O $ O O O o O 7                             ",
"yXyXjXzXdXkXxXxXsXaX.XE C.h.f.%.X.| $. .{ ) C @.$.O.=.-X*.F ..+.+.;. .} ) ) N e > & O O o O O O #                               ",
"bXbXfXlXzXjXjXvXvXcX5.F m.t.d.%.$.%.$.U { { K K { ;.$X*.! +.t.h.j.j.d.X.| K B p e = * * % O O O ,                               ",
"gXyX9XkXlXxXzXfXhXvX6.N g.y.h.t.g.&.@.K ) ) K N _ 4.*.+.d.f.k.j.B.k.f.%.| U Z B v a 2 > 3 + + * >                               ",
"1XvXvXdXhXjXzXlXaXaX<Xv L m.t.%.g.&.X.} L B B ] <.[  .%.%.g.f.j.B.M.t.%.X.U C C B B v i < > < < 0 <                             ",
",XeXeX2XiXjXlXxXzXhXcX7XN P E X.&.X.| U Z _ 2.<.K } $.+.t.f.B.C.B.h.y.%.| U K C V K B k y 9 9 h l 9                             ",
"  1XoX@X2X8XwXwXaX0X3X6X0X*.V | T U U [ <.<.` Z { X.$.%.d.k.B.l.B.h.t.%.X.T P P U P V m h 9 h h v l                             ",
"    -X-X-X%X;X3X;X:X<X0XcX7X3.4.5.3.5.1.^ N b K K T X.t.h.N.V.V.k.h.y.t.X.| T Y T Y P P m l h h l j                             ",
"        aX;XeXdXdXwXhXwX&X$X*X&X&X$X4X;X] v Z V U | +.u.C.N.V.N.M.M.h.y.%.%.X.E E R Y P S M m l m 9                             ",
"        :.&X.X>X7XwX6X$X1.%X&X$X$X;X3X4X] z Z V P T +.u.N.V.C.V.N.N.h.u.t.e.e.o.W R R I I I M M l <                             ",
"         X&X X. -X>X3.,.3.%X#X#X#X-X;X;XN p n b B T t.b.M.N.J.L.N.M.b.h.u.t.e.e.e.o.W W R S S M 4                               ",
"            >X4 -X^ >.' >.<.<.<.1.4.$X4.p z v b P t.p.p.N.G.F.J.J.N.M.M.k.u.s.r.e.e.8.W Q Q S 4                                 ",
"              6.-X^ >.>.. d ^ ` ' ' 3.2.y z B E e.r.r.a.S.J.S.S.S.N.N.V.M.b.b.s.r.e.8.8.9.I                                     ",
"                ' 3.<.>.. f ^ ` ' >.=XbXy b R e.e.r.a.S.S.S.S.F.L.J.S.N.N.N.p.s.s.s.r.8.M                                       ",
"                  ` ` ^ ( ` ` ` >.<.*X. i Z I W 8.a.a.Z.G.D.G.D.S.J.J.F.S.M.M.v.v.r.Q 4                                         ",
"                          & ^       <./ B U ) e.s.v.a.D.Z.D.F.J.F.F.J.N.S.F.F.v.i.S                                             ",
"                                      &.E W u.y.v.Z.Z.Z.Z.D.F.S.F.S.D.G.G.N.M.T J.                                              ",
"                                        9.n.:.-.b.Z.Z.Z.A.D.D.Z.S.G.G.D.v.W T.                                                  ",
"                                          C.b.b.u.v.A.A.A.D.G.A.G.D.Z.y.W.                                                      ",
"                                          C.n.n.n.v.Z.Z.Z.A.A.A.v.u.                                                            "
};
