/* XPM */
static char *bb7b0c566af847f2e1d9c5d43b669d99RS4vEwANFbtrVzWM[] = {
/* columns rows colors chars-per-pixel */
"64 64 251 2 ",
"   c #000000",
".  c #0B0201",
"X  c #02020C",
"o  c #090507",
"O  c #010011",
"+  c #0A0014",
"@  c #1E1006",
"#  c #250306",
"$  c #370300",
"%  c #281802",
"&  c #392805",
"*  c #3D3107",
"=  c #34280D",
"-  c #4D1E02",
";  c #432F08",
":  c #532805",
">  c #443304",
",  c #4C3C04",
"<  c #44330B",
"1  c #4B3B0B",
"2  c #483807",
"3  c #4C3C13",
"4  c #4D3B1B",
"5  c #473717",
"6  c #533E16",
"7  c #653003",
"8  c #4E3B21",
"9  c #513F22",
"0  c #3C470F",
"q  c #5A4304",
"w  c #53430B",
"e  c #5E4A0D",
"r  c #584808",
"t  c #5B5109",
"y  c #4D4416",
"u  c #534313",
"i  c #5B4B13",
"p  c #55431C",
"a  c #5B4B1A",
"s  c #584818",
"d  c #5E531A",
"f  c #4B4108",
"g  c #644F05",
"h  c #6A5A0E",
"j  c #755704",
"k  c #624E1A",
"l  c #644B15",
"z  c #635414",
"x  c #62521C",
"c  c #6B5A17",
"v  c #735A14",
"b  c #704206",
"n  c #786618",
"m  c #706412",
"M  c #4D4224",
"N  c #544624",
"B  c #554B23",
"V  c #5B4D24",
"C  c #5C4B2C",
"Z  c #56472A",
"A  c #5B5329",
"S  c #4F4434",
"D  c #594B36",
"F  c #5C5737",
"G  c #644E25",
"H  c #635425",
"J  c #6B5B24",
"K  c #63532C",
"L  c #6A542B",
"P  c #6C5A2C",
"I  c #675724",
"U  c #735C2A",
"Y  c #765928",
"T  c #645432",
"R  c #655B3B",
"E  c #6C5D3C",
"W  c #695A35",
"Q  c #765E39",
"!  c #614D34",
"~  c #6C6227",
"^  c #72632C",
"/  c #796827",
"(  c #7E722C",
")  c #686235",
"_  c #746333",
"`  c #7A6B32",
"'  c #74633B",
"]  c #78653B",
"[  c #7A6C3C",
"{  c #756A38",
"}  c #7E733C",
"|  c #7D7537",
" . c #6E7329",
".. c #544F4A",
"X. c #6B5D44",
"o. c #665B47",
"O. c #6E5950",
"+. c #5F6050",
"@. c #6B6343",
"#. c #6E624D",
"$. c #65604D",
"%. c #756343",
"&. c #7A6644",
"*. c #716B43",
"=. c #7D6C43",
"-. c #736A4C",
";. c #7C6C4B",
":. c #74664C",
">. c #7B7344",
",. c #76734A",
"<. c #6D6757",
"1. c #746C53",
"2. c #786A57",
"3. c #7B7458",
"4. c #6A7344",
"5. c #725F61",
"6. c #796A64",
"7. c #7C7766",
"8. c #6F7072",
"9. c #835700",
"0. c #94711A",
"q. c #816C2A",
"w. c #84732D",
"e. c #846B38",
"r. c #837332",
"t. c #83733D",
"y. c #8D7C3C",
"u. c #88763A",
"i. c #907B39",
"p. c #875822",
"a. c #846C42",
"s. c #856746",
"d. c #837443",
"f. c #8B7642",
"g. c #8C7B43",
"h. c #83744B",
"j. c #85794A",
"k. c #8C7B4C",
"l. c #887648",
"z. c #937C4B",
"x. c #957A48",
"c. c #866F55",
"v. c #847453",
"b. c #8B7B56",
"n. c #8B7D5B",
"m. c #877658",
"M. c #917E5C",
"N. c #917A59",
"B. c #956E44",
"V. c #877867",
"C. c #877C72",
"Z. c #896D67",
"A. c #A17E62",
"S. c #008026",
"D. c #7C866E",
"F. c #978438",
"G. c #A69137",
"H. c #B1A42A",
"J. c #DCCD3C",
"K. c #94824C",
"L. c #968546",
"P. c #8F8054",
"I. c #8E825F",
"U. c #848256",
"Y. c #958254",
"T. c #9B8B53",
"R. c #93845C",
"E. c #998759",
"W. c #90874C",
"Q. c #A28A5B",
"!. c #A29359",
"~. c #AE9455",
"^. c #BCA55F",
"/. c #8C8562",
"(. c #87836B",
"). c #938365",
"_. c #9B8A64",
"`. c #9C8B6B",
"'. c #968966",
"]. c #9F9168",
"[. c #878273",
"{. c #9A8975",
"}. c #999679",
"|. c #8C9374",
" X c #A38A67",
".X c #A3926D",
"XX c #A69769",
"oX c #A18974",
"OX c #A59372",
"+X c #AA9573",
"@X c #AA9A77",
"#X c #B39B77",
"$X c #B19C6D",
"%X c #BCAA68",
"&X c #B9A678",
"*X c #C8B35A",
"=X c #C8B15A",
"-X c #C8B267",
";X c #C1A977",
":X c #C9B776",
">X c #CAB16C",
",X c #C6C159",
"<X c #D5C672",
"1X c #E7D576",
"2X c #F8E673",
"3X c #FAEE6E",
"4X c #E8D85E",
"5X c #5A6084",
"6X c #756592",
"7X c #8174A2",
"8X c #817589",
"9X c #748B91",
"0X c #01FFFF",
"qX c #5AECF9",
"wX c #86878A",
"eX c #978C89",
"rX c #969383",
"tX c #8F8897",
"yX c #A99B88",
"uX c #B09E89",
"iX c #A59997",
"pX c #ABA485",
"aX c #B5A581",
"sX c #B1A789",
"dX c #B7AA98",
"fX c #BAB597",
"gX c #938AA6",
"hX c #9FA0B2",
"jX c #BCB5B0",
"kX c #D3BC87",
"lX c #CBBC89",
"zX c #C1BBA9",
"xX c #D9C885",
"cX c #D7C698",
"vX c #C9C49E",
"bX c #E3CC86",
"nX c #E5D498",
"mX c #E2D28C",
"MX c #FAE996",
"NX c #CEC7AA",
"BX c #E9D7A1",
"VX c #E6CEB6",
"CX c #F9EAB3",
"ZX c #A8A5DC",
"AX c #BEC3D9",
"SX c #99C1FF",
"DX c #B7E9F4",
"FX c #DCFFFE",
"GX c #FBFDFB",
"HX c #EFF0F4",
"JX c #D4CBEC",
/* pixels */
"                                                                                                                                ",
"                                                                                                                                ",
"                                                                                                                                ",
"                                                                                                                                ",
"                                                                                                                                ",
"                                                                                                                                ",
"                                                                                                                                ",
"                                                                                                                                ",
"                                                                                                                                ",
"                                                                                                                                ",
"                                                                                                                                ",
"                                                                                                                                ",
"                                                                                                                                ",
"                                                                                                                                ",
"                                                                                                                                ",
"                                                                                                                                ",
"                  X     X       o o         X o o o     o   O . o O .   X .             o O     . X     .     o                 ",
"                dX$X&XsX`.V.6.V.'.  o     o o   . X       GXuXFXGX{.{./.eX|.o X + . . X wX7.1.Z.2.7.2.[.+ X                     ",
"                x.v v w.Y e.e.O.+...~ [._.,.;.4.1.[.m.3.(.Z.0X/ %.` Q ` [ 3.V.yX7.7.[.U.<.' X.e p *.eX$...2.. X                 ",
"                g.v j w./ w.=.8.7.M ~ D.# . . (.l.&.) wXo # Q m.h.h.{ %.K 7XwXF D.(.[.(.jXA O.G S 2.3 C % . 1.                  ",
"                m.e.w.k.] t.3.5XeXD v eX-   o ZX7.a.&.; o # { 3.b.h.=.;.W 6XeX) HXV.eX7.zXo.8.s.@.Z.< C 5 & . .                 ",
"                `.j j f.l.e.[ <.# K Q 3.h.) V   6.;.-.Y >.$.%.gX' Y L z I v.3.h.S 1.<.j.@.' %.v z R X.D D V ..X                 ",
"                OX9.9.u.l.u.Y J 5.* c a.K.s x ,.,.e.Y A } e.] -.m.%.T e 5 y.a.6 Z K ] a.4 u n i.t.C N B HXzX3.                  ",
"                sX: 7 _.yXM.G ' o.< t  XoXY P n n j / l d ` U &.{ :.p w * t.u.g 4 ) P.J 1 N n w.[ Z #.M P X.R .                 ",
"                E.w.w.R.uX'.z L ^ 8 r i._.n.+Xh / b.| , &.+Xh.yXW y 5 r 2 ^ v.U u T ] I 1 H f._ k V D N o.F D .                 ",
"                f./ / E.yXR./ ] { C q w.l.+XOXn l.#Xz.> =.yX{ pXL 1 4 r > i oX^ < -.j.t.V a t.] I V X.N <.-.#.                  ",
"                y./ / T.`.n.F.E.d.4 w / } ;.e.q. XY v 2 | pXm OXI 2 4 z u x h.J % ' } >.p i t.m.k A F T 1.*.-.rX                ",
"                L./ w.T.+X`.g.N.;.4 , q.e.a.J q.T./ l = P Z._ '.J u V x 1 e n.=.% 4 ^ ] N x L.oXw B F p @.F R 7.                ",
"                K.e.g.K.@X_.r.M.' 5 1 w.e.Q e J u./ F.G.H.n s R._ 2 s _ & ~ lXnX9 < ` h.T i y.M.q V T G o.a C 3.                ",
"                E.k.n.d._.b.^ '.j.6 1 ` Y.P 1 x &XBXCXCXMX2X0.k V u a { H %XlXBX_.u } [ W r r.] e V C P Z y V 2.                ",
"                I./.'.[ R.m.` a.J N w j.v._ 2 W.CXBX<XnXxX2XJ.j y f 1 '.cX:X^.xX&Xa ] _ K k g.t.w A C 3 D & & 3.                ",
"                /.pXfX>.c.;.k.v.~ 4 g  XOX~ < xXnXnXbXbX:XbX3XG.P ) Y.vXxX:X-X:X!.V [ Q G 6 x.t.w B Z N D = = $.                ",
"                yXFXGXt.x.l.k.N.P a l OX@X~ u cXmXnXmX1XmX<X3X4X;X-XkXkX;X:X:XnX,.T E =.a 3 L.M.a V o.:.E E T @..               ",
"                fXHXGXW.x.g.R.+XP s J  XN.` * lXMXcXnXcXnX&X<XMX*X*X-X>X-X=X:XVXV :.=.h.J 5 L.@Xp V o.X.K 5 u *.                ",
"                XXzXNXL.x.t.E.pX^ w J aXM.t.2 d.$XXXT.W j.>.T.3X1X=X-X=X:X%X<X;X5 ;.I.h.L < K..Xa @.D A G o GX2.                ",
"                $XsX#Xx.Q.t.V.`.^ 1 i @XR.t.s , L.} f & u.m.b.,X2X*X=X^.;XxXxXU y ;..X' s * | k.i F o.x ! JXZX<.                ",
"                T. XE.F.E.d.'./.c 1 L  X].k.u f !.c.u ; t.n.C.k.H.4X1XbX1X&XK.x s b.@X>.V 1 w.E.G F S i C hXwX<.                ",
"                K.!.Y.y.E.k..Xh.z > _ @X.XE.p , F.v.x & ` P.{.{.L r v / c Y Y.c 2 >.P.j.i * ( Y.a N S k Z tXwXo.                ",
"                L.i.g.g.XXP._.^ h & H &X`.I.K > F.g.g * W.P.b.`.V ; 3 w > f.$XG 2 ' W.l.i < w.R.t R o.a Z gX8X#.                ",
"                L.w.x.!.aXl.[ e h & K sX@X_.A ,  X Xd & v.V./.).w < r r l x.T.g < &..X[ I 3 ` {.y ' O.K 0 7.<.T                 ",
"                x.w.W.Q.XX Xk 7 3 u Q _.+X@XK 2 !.{.t 9 h.v.>.:.V ' J r r L.x.q = ` |.W G f ` '.a V F A M iX[.o.                ",
"                '. X}.>.n.u.R J d H E._ l.' W x oXc._ ' g.I.t V.b.`.] 6 u ].! a 4 J y.v.;.1 h R.i C S u B 8.6.*.                ",
"                7 q.f.B.q.h v 2.v.} W.{.).V k.V.F.E.l a.=.6.n.I.'.j.` ] T j.X.-.o.[ c.>.{ f ] R.t $.S u d #.o.E                 ",
"                0.7 p.r.- HX/ iXX.I..X`.'.s ;.).G.x.s [ | 2.[.GXI.&._ `.(.W @ 6.o.7.*.P f B Z.1.A T V.{ i K a W                 ",
"                ].DXFXx.# AXU.A.E j.T._..XI >.2.AXU.d.Y B.C.3.GX{.%.] {.V.o.@ 6.F &.,.c E X <.<.*./.2.G l J J L                 ",
"                }.].`.'.Z.g.} #.. *.,.(.3.*._.iXfX}..   V.U. .t.n.3.^ '.:.,.yX@ s.1.m.SX9 GX6.) X.C.6.a x C K P                 ",
"                O   . . X . X       .     o . o o X o X     JXfXfXjX&XvXvXfX  (.qX0 D.9X6 8.6.o.#.<.O.NX;.eXrX}.                ",
"                .   X + X .   X o o X             o     .   X     X     o   O   c. .4.{ v.V.>.eXrX}.rXdX.                       ",
"                                                                                                                                ",
"                                                                                                                                ",
"                                                                                                                                ",
"                                                                                                                                ",
"                                                                                                                                ",
"                                                                                                                                ",
"                                                                                                                                ",
"                                                                                                                                ",
"                                                                                                                                ",
"                                                                                                                                ",
"                                                                                                                                ",
"                                                                                                                                ",
"                                                                                                                                ",
"                                                                                                                                ",
"                                                                                                                                ",
"                                                                                                                                "
};
