/* XPM */
static char *a871d7d316fb4906a017617c81267e0fBXHnbE3PsjEo5JWo[] = {
/* columns rows colors chars-per-pixel */
"64 64 254 2 ",
"   c #020202",
".  c #0C0201",
"X  c #080909",
"o  c #130B09",
"O  c #16120D",
"+  c #1A1612",
"@  c #1D1A15",
"#  c #1E1C19",
"$  c #161515",
"%  c #020B14",
"&  c #261608",
"*  c #221B16",
"=  c #2B1B14",
"-  c #221D1A",
";  c #2B1E1A",
":  c #231516",
">  c #361E16",
",  c #29090A",
"<  c #1A211C",
"1  c #1F200E",
"2  c #25211D",
"3  c #2A231D",
"4  c #2C291E",
"5  c #282215",
"6  c #33241C",
"7  c #3C291D",
"8  c #37251A",
"9  c #33301D",
"0  c #1D1D22",
"q  c #261E22",
"w  c #262322",
"e  c #2B2522",
"r  c #2E2924",
"t  c #29292A",
"y  c #322622",
"u  c #332C25",
"i  c #3B2D25",
"p  c #332D29",
"a  c #3A2D2B",
"s  c #382624",
"d  c #2D322C",
"f  c #343026",
"g  c #3C3226",
"h  c #36312B",
"j  c #3B332B",
"k  c #3E382F",
"l  c #3C3632",
"z  c #3D3A33",
"x  c #373432",
"c  c #332C31",
"v  c #1E2A20",
"b  c #442B1E",
"n  c #4A291A",
"m  c #50311E",
"M  c #763E12",
"N  c #4B2E23",
"B  c #452D29",
"V  c #42352C",
"C  c #49352A",
"Z  c #543424",
"A  c #54342B",
"S  c #5C3C2C",
"D  c #583828",
"F  c #413730",
"G  c #4B3532",
"H  c #423933",
"J  c #4C3C34",
"K  c #463C39",
"L  c #543B33",
"P  c #5B3D32",
"I  c #543C3A",
"U  c #563837",
"Y  c #633D2C",
"T  c #623E33",
"R  c #4E4117",
"E  c #6C441C",
"W  c #5C412D",
"Q  c #594A29",
"!  c #4A4237",
"~  c #5C4234",
"^  c #54433A",
"/  c #5B433B",
"(  c #5C4B3B",
")  c #564937",
"_  c #4D4D2B",
"`  c #64422C",
"'  c #644434",
"]  c #6B4533",
"[  c #6C4A36",
"{  c #63453A",
"}  c #644A3C",
"|  c #6E4C3B",
" . c #694737",
".. c #734C35",
"X. c #734D3B",
"o. c #7A4E3B",
"O. c #764935",
"+. c #6A513F",
"@. c #75513D",
"#. c #7C523D",
"$. c #7C5337",
"%. c #744825",
"&. c #2F3F58",
"*. c #513E42",
"=. c #29435A",
"-. c #5B4B43",
";. c #594644",
":. c #4F4E4D",
">. c #6C4D42",
",. c #634A46",
"<. c #774E43",
"1. c #6B5349",
"2. c #745144",
"3. c #7C5343",
"4. c #7B5649",
"5. c #7A5A55",
"6. c #655E58",
"7. c #786455",
"8. c #736553",
"9. c #75726B",
"0. c #7A5B60",
"q. c #82533D",
"w. c #86553A",
"e. c #874E2F",
"r. c #82623B",
"t. c #845542",
"y. c #8B5944",
"u. c #835B4B",
"i. c #8C5C4C",
"p. c #865748",
"a. c #935C43",
"s. c #925D4A",
"d. c #985544",
"f. c #875B54",
"g. c #8B574C",
"h. c #896545",
"j. c #966244",
"k. c #9A6346",
"l. c #94624B",
"z. c #9C644B",
"x. c #9A6A4A",
"c. c #886659",
"v. c #946354",
"b. c #9C6652",
"n. c #9C6A5C",
"m. c #986857",
"M. c #917158",
"N. c #A46A4D",
"B. c #A56A4C",
"V. c #A5724D",
"C. c #A36B52",
"Z. c #AB6E52",
"A. c #A66D5A",
"S. c #AC7354",
"D. c #AC735B",
"F. c #A87456",
"G. c #B47354",
"H. c #B4765B",
"J. c #B57A5B",
"K. c #BC7C5C",
"L. c #B87956",
"P. c #B27050",
"I. c #847B77",
"U. c #8C6E61",
"Y. c #A87665",
"T. c #B57A63",
"R. c #BB7D63",
"E. c #B57B69",
"W. c #B37B6E",
"Q. c #A35B4C",
"!. c #C17F5C",
"~. c #C07F63",
"^. c #B8825B",
"/. c #AB805D",
"(. c #998976",
"). c #AA8469",
"_. c #BD8365",
"`. c #BB836B",
"'. c #BC8D6D",
"]. c #B58868",
"[. c #BA8974",
"{. c #BA9678",
"}. c #B59171",
"|. c #8C8058",
" X c #C4825D",
".X c #C9835D",
"XX c #CA895B",
"oX c #CD8657",
"OX c #C48363",
"+X c #CA8662",
"@X c #CC8A63",
"#X c #C4856B",
"$X c #C58A6C",
"%X c #CB8B6C",
"&X c #C68967",
"*X c #D18B65",
"=X c #D18E6B",
"-X c #C8936B",
";X c #D4936C",
":X c #D8956C",
">X c #C48974",
",X c #CD8C73",
"<X c #C68A77",
"1X c #D18F73",
"2X c #CC9473",
"3X c #CD917B",
"4X c #C69776",
"5X c #D49373",
"6X c #D99574",
"7X c #D49973",
"8X c #DB9B74",
"9X c #D3957C",
"0X c #DC9C7A",
"qX c #D6997B",
"wX c #E19F75",
"eX c #E29E7C",
"rX c #DAA177",
"tX c #C8A57D",
"yX c #E3A27D",
"uX c #E3A67C",
"iX c #3C6380",
"pX c #5FA999",
"aX c #BA9C86",
"sX c #AF9E8E",
"dX c #B3ABA7",
"fX c #A99C92",
"gX c #C89B82",
"hX c #DB9B82",
"jX c #E29E81",
"kX c #C8A487",
"lX c #D6A886",
"zX c #CAAD97",
"xX c #D5B593",
"cX c #E6A481",
"vX c #E9A582",
"bX c #E4AC84",
"nX c #E9A984",
"mX c #E9B688",
"MX c #EBBB92",
"NX c #F4BF95",
"BX c #DCBEAA",
"VX c #CCBBAB",
"CX c #E9C298",
"ZX c #F2C89A",
"AX c #D1CBB7",
"SX c #F5C9A4",
"DX c #F8D4AB",
"FX c #FAD9B7",
"GX c #EBCFAE",
"HX c #ECDCCF",
"JX c #F2E7CE",
"KX c #FCF9E8",
"LX c #EDEDEE",
"PX c #CED2C4",
/* pixels */
"    V 0.J f KXaXAXHXLXLXKXHXGXlX'.^.^.V.V.C.V.F.F.F.N.j.l.x.z.l.b.b.z.a.k.z.z.z.C.d.s.B.z.a.k.F.].4XlXxXxX|.5 O e.k E :.=.) ^ ;.",
". k 6.U.W 1.KXsXLXLXHXKXKXGX4XK.^.L.^.F.F.F.D.D.D.D.N.z.k.C.C.x.C.C.C.N.z.C.C.B.B.B.B.B.k.k.x.x.F.V./.-XtXtXM.+.E 9 R %.;.) _ ^ ",
"h z AX(.Y 1.HX(.AXJXFXGXlX-X XXX^.^.K.!.^.K.J.J.L.H.S.N.C.Z.S.Z.Z.D.S.Z.Z.Z.Z.Z.B.Z.B.B.k.B.V.N.L.V./.^.^.-XkX{.h.Q R E E _ ` ( ",
"-.5 AXfXs > VXdXPXJXCX-X^.^.XXXX.X X!.!.OXOX!.K.K.K.J.L.L.L.H.P.G.L.L.G.P.G.G.P.Z.Z.B.B.Z.V.P.S.P.^.^.V.V.V.^.^.^.h.+.E ` ;...Q ",
"( 7.c.1.j ;.sXJXJXCX;XoX*X@XXXXXXX.X!.!.!..X~.!.OX~.!.!.!.!.K.!.!.G.!.P.P.P.P.G.G.P.P.Z.P.B.Z.Z.V.P.V.S.S.k.j.V.F.V.h.+.( -.} ) ",
"|.CX@.( 7.zXDXDXCXrXoXoXXX@X^.&X.X.X.X.X*X.X!.!.!.!.!.!.!.!.K.!.!.!.P.P.G.G.G.G.G.G.G.P.S.S.P.B.P.V.N.B.N.k.x.k.y.h.h.4.+.) ) ( ",
"AX[ +.|.zXJXZXZXuXrX:X=XXX*X.XXX*X.XoX*X*X!..X+X.X!.+X+X~.!.!.!.!.!.!.G.G.G.H.K.H.L.G.S.P.S.Z.C.B.B.k.j.w.w.B.w.a.r.r.$...( _ ( ",
"7.1.c.VXFXSXNXSXmXrXeX;X-XXXoX*X*X!.*X*X*X!.+X+X*X*X*X+X+X!.+X+X!.!.!.!.L.!.H.H.L.G.G.G.S.Z.B.N.B.k.j.j.k.w.w.d.a.w.#.%.@.2.Q S ",
"8.7.{.GXFXDXSXZXuXuX:X:X:X:X*X:X;X*X*X*X*X*X*X*X*X=X=X*X*X*X*X*X!. X!.K.K.K.K.K.L.L.L.Z.Z.Z.B.B.z.z.j.a.y.y.q.y.w.q.$.O...` Q W ",
"U.}.VXFXFXSXSXZXZXuXwXwX:X:X:X:X:X:X:X;X;X*X=X=X*X=X6X*X=X*X~.*X.X X X!.K.K.K.K.K.L.G.G.Z.B.B.B.z.k.j.j.w.y.q.q.e.O.o...[ [ ' ~ ",
").kXCXDXDXSXCXZXZXuXuXwXwXwXwXwXeXwX0X8X6X:X;X;X=X1X6X6X6X*X1X~.+XOX XK.~.~.~.K.K.K.H.Z.Z.B.d.B.k.a.a.y.a.q.q.q.$.$.o.....' ' W ",
"tXzXMXNXZXZXmXZXmXuXuXwXwXuXuXuXuXvXuXcXeX8X6X8X6X6X6X6X6X=X~.1X&X&XOXOX~.OXOXR.R.H.D.Z.B.C.N.s.k.a.a.y.w.q.q.$.#.#.o...[  .' W ",
"kXlXmXMXMXmXbXmXuXyXwXwXwXwXuXuXnXnXnXnXyX0X0X0XeX0X8X8X1X~.6X~.&X%X&X~.#X#X#XR.R.H.D.A.Z.A.Q.b.l.s.y.y.y.q.#.$.$.X.....[ [ ` ~ ",
"{.tXlXlXbXmXnXuXrX8XwX:XwXwXuXuXnXnXnXnXyX0X0XeXeX0X0X0XhXhX1X6X%X%X&X#X#X%X#X#XK.T.H.A.A.A.b.B.s.s.y.y.y.q.q.q.#.#.X.[ ' ' ~ ` ",
"}.tXtXrXlXbXuXrX8X:X:X:XwXwXyXuXvXbXnXnXyX0X0X0XeX0X6X9XhX~.1X1X,X$X#X$X%X$X#XR.R.T.H.A.A.A.Q.s.l.y.y.q.q.q.q.#.#.#...[ [ ' ` W ",
"-X}.'.4XgXrXrX8X8X:X:X:X:XyXyXyXvXvXnXcXjX0X0X0X0X6X0X0XhXhX~.hX#X#X#X#X#X>X#X#XR.R.T.H.D.A.C.b.s.s.y.t.q.#.#.#.#.#...[ [ ' ' ' ",
"}.'.'.4X7X7X7X7X;X:X8X8X8XrXuXuXvXnXcXeXyX0X8X:X6X6XhX6X6X1X~.~.#XOX_.#X#X#X>X~.R.R.R.H.H.H.C.b.l.s.y.t.t.q.o.q.o.3.X.X.] ' ] S ",
"}.].].'.tX7X-X7X;X:X:X6X8XwXyXuXvXnXvXeX0X0X7X5X6X1X1X1X1X1X1X<X#X#X#X#X%X>X,X~.R.R.K.L.H.A.C.b.s.i.t.q.q.#.t.o.o.o.o.o.o.| X. .",
"]./.].'.4X-X7X-X;X*X;X7X8XeXyXvXvXvXvXvXeX0X6X6X~.6X9X~.1XhX~.<X,X,X,X%X1X1X%X~.#X~.R.R.D.A.C.v.s.y.q.t.t.#.#.3.o.#.o.#.X.@.+. .",
"/.].'.-X-X-X-X-X&X&X@X:X6X8X0XyXyXyXvXvXjXjX0X6X6X1X1XhXhX~.<X~.1X,X1X,X=X%X%X%X~.~.R.H.D.A.C.v.v.y.t.q.3.o.o.o.o.#...o.X.| @.{ ",
").'.>X2X-X&X&X&X@X-X;X:X:X7X7X8XyXeXcXcXjXjXeX5XhX~.hX1XhX~.~.<X,X,X,X,X<X,X>X>X~.W.A.A.n.v.v.v.u.t.3.#.#.X.@.#...@.o.....@.+.' ",
"[.[.'.$X&X$X-X4X%X%X=X-X=X%X&X$X2X,X3XqXqXhXhXhX~.gX~.~.~.<XhX~.,X3X,X>X~.[.E.E.W.Y.n.f.p.>. .T { ' ' ` W ` ` ]  .X.X.@.@.@.| ' ",
"}.[.'.].>X4X4X$XF.F.F.x.m.x.l.h.v.x.m.x.Y.`.`.<X~.<X<X<XhXgXhX~.<X<X<X[.W.Y.n.v.p.<.{ T G B 7 s i s 7 7 b b b N W ' X.X.#.2.| S ",
").{.{.].4XrX}.l.| | } W D L Z N S W S ` 3.f.v.n.n.W.W.<X<XgX<XW.`.>X`.Y.n.n.g.<.U G B B a y w 3 3 3 ; 3 6 6 7 b N S ' X.#.2.X.S ",
").aX{.{.'.].4.Q ! ! V g i a p e p x u F I ,.P >.4.f.v.Y.<XgXgX~.W.W.n.f.<.>.{ U V i 3 s 6 ; ; r 4 y j j i B B B N Z { X.@.[ +.Z ",
"Y.{.aXkX4XM.' ~ { } ~ S / L C a i G F B G U U U T >.p.n.W.gX~.W.Y.n.c.2.P U G A I G G ^ ! ;.;.-.-.,.,.,.-.-.^ J C D Q | |  .| Z ",
"M.[.gXaX).c.' >.f.c.c.M.U.M.c.7.2.>.{ / U ,.{ U ' <.f.Y.[.<X[.Y.U.c.f.2.{ L / / ;.I *.*.I ^ J I U G G G L L I / ~ ~  .| @.+.2.Z ",
"l.}.BXgX).m.u.c.u.u.4.<.>.2.,.T ~ L A J / ,.{ <.{ 4.c.`.gXgX{.E.n.f.>.>.} / / I I U I s r y ; = s s > > 8 N A ' ' } | ..$.3.4.Z ",
"3.Y.BXkXY.n.l.h.@.Y m n n A U s : a s c *.,.U U O.p.C.'.9XlX4X].A.f.o.T P L B B B B G c s a s s G J G B A A A S  .| | X.@.h.4.S ",
"} U.BXzX).F.V.x.3.%.] ]  .f.5.,.K ;.K *.,.,.A T t.s.C.J.-X9X3XR.Y.d.o.T A N B A G G ;.*.,.5.1.1.4.2.<.>.>.>.} } [ X.X.o.#.4.h.D ",
"A 5.CXzX'._._.D.].).E.E.Y.Y.Y.n.f.f.2.5.5.>.T g.s.z.C.J.%XqX9XE.A.d.O.T A A U U ,.<.0.f.f.c.c.f.f.4.<.<.<.X.X. .<.o.<.o.3.u.4.D ",
"8 ( VXzX4X'.J._.`.R.R.K.R.T.Y.T.Y.n.n.f.f.g.v.n.A.D.S.K.5XqX1XT.D.v.q.T A A U T ;.<.>.f.g.f.p.3.p.p.u.i.p.t.p.t.<.3.t.q.#.t.t.D ",
"6 L }.lX4X_.&XOX].-X-X^.J.H.C.k.s.i.i.y.i.l.C.D.L.L. X&X,X$X^.N.Q.d.q.O.Y Y Y T ' >.<.f.f.f.c.n.v.n.n.n.m.v.f.g.t.p.q.o.3.4.3.m ",
", 8 c.4XkX'.$X$X,X9XhX9X<X#XT.Y.A.n.m.m.n.n.n.x.y.y.w.O.Y ` Y Z n n n n Z Z Y Y ` ..<.t.f.v.n.Y.W.<X<XW.W.A.C.d.l.i.q.q.3.3.#.n ",
"8 8 ) 7.c.3.@.3.3.4.p.p.3.X...| { { ~ ~ ~ P D m C C C B i C V a ; * * = = > > > n n m D A ' X.o.g.g.f.v.s.g.t.t.3.<.O.] [ | ' n ",
") ! _ V g C i B V V V g V j g V V j V g g u 9 9 y 4 y e p l z h w ; - - @ + : : * = ; 3 ; > 8 7 B 7 b B b b b b b N N N N m N > ",
"! ! V 9 6 F a a g V j V F F F g i j j a p y i f f u 4 6 u j h p = < @ @ # # # 0 0 # q 0 0 - ; * * - - * * * * 5 * ; * = = = 7 7 ",
"4 f u e 4 f r p i V G H j j V g g h j g h u u r 8 g V F z G k f 5 5 5 @ * * - - - - # - - - w w w w w q w w w - # v 2 2 * = 6 V ",
"4 9 4 4 d d r x p g z z k z k k z z z h g h d f p f g j j F j a 2 2 - - - * - - - * * * 2 2 3 2 e e q q ; ; - @ # 0 - - ; 4 V ( ",
"7 6 6 4 4 r 4 e 6 y f x z H z z k H G V i 6 s a h h h j l K z r q - - - - @ @ * @ @ # @ 2 2 < q q ; 3 ; 2 2 2 - w ; ; ; 3 g ( 9.",
"e r 2 r 4 3 f 4 e r f f j j k k k j j g y y p g g p y g l H j p 2 ; - * * ; - * * - # * - - - w 2 2 2 - * * # # @ @ * ; ; ;.5.8.",
"  r f h h 2 5 4 e r u r r r f f g h p i g p g g g p g H K K x a w ; - * : * @ * * * * - * - - - ; * - - # # * * @ 2 * ; V -.;.^ ",
"dXz < < e p f 2 r p f r r r f r u u u f h g h j g u f k H K h u e q - - * * - * - - - # * - * * # - - - - # # @ + - * - I I.I.1.",
"9.t 4 w p h r e r p f u r f f f p u u f j h g p V j j k H z x p w q - * - - * - - - - - * # * @ - - - - q - # $ * * ; r r p p h ",
"w h x 9.9.z t r e r u r r p f h g f g f h p f g V k V k H l p p e 3 ; # - # @ @ @ * * # @ * @ @ # @ - - - - # @ * q e a e o . H ",
"d t x I.I.:.r 2 e r f r u p f h p p h h g h p g j j H ! K z c p w ; - - - - @ # # * @ * : @ @ * - @ @ # # # - # q p r e r r q l ",
"x z x u h z e # w e r r r r r r y e r u y y r u u p j l l l h u - * # @ # @ @ @ @ * @ * @ # * @ @ @ + @ # # # # w t x x p a u H ",
"h c z l x u t p 2 2 3 e 2 3 2 2 = 5 * 2 = * * + * * * e r p 3 2 # @ $ O $ O + O + + + + + + @ @ @ @ @ # # # # $ t z c r u u a 6.",
"h e e d r p p 2 2 e e r u p h x h h h p p p p u i y u y 6 4 3 2 4 2 + + + + + @ + + + + + + @ @ + @ @ # # O # 2 t c t p p p s g ",
"p d e e w t p w 2 3 2 4 r f f h j h g h g g j j j j g g u p u u f 2 5 @ + + + @ * @ @ * - @ * # - - # @ @ O @ # q q t r s 6 6 d ",
"h e @ dXfXo z # 3 4 e 3 e r p f g j j j j j j j j z z j h p h h h t < + @ @ @ @ - - - - * 2 2 5 - - - $ @ # # @ @ q t w 5 > 4 t ",
"h t e 6.6.- r ; t e e e e r u f h g g f a i g p j k j j j j h h h 2 @ @ @ < @ 5 - - * - - - @ @ + @ * : @ @ @ + 5 ; - w 5 * 4 + ",
"h d w # 2 e e y e e r e 4 r f g g g g g i u y 9 g h f g j p h f f e < @ < - @ < @ * @ @ @ @ @ @ : @ * @ @ + @ @ 3 = ; = 5 < # . ",
"2 t f e 3 u u y e r u e 4 4 f f j k z k g g u u e 4 4 e p p f f p w 2 @ # 1 @ @ + + + + + + + @ @ @ + + + + # - v O = , ; d w   ",
"  2 2 e p 3 3 y 4 4 r 4 4 4 r r j k k H j j j j u u 4 e e r u r e 5 + + + + O + O O O + + + @ @ @ + + + * - ; ; * * 0 &.:.c p X ",
"  . - p r e y ; 5 4 4 4 4 r r f f h k k z G H K K H g p e e e r 2 < + + $ + + @ + + + @ @ $ @ $ + # # @ * ; q * & 5 t pXpX, # X ",
"      O 4 i 3 3 5 3 3 i e r w e e r f j G G k k K F F l x p p w 2 @ + @ @ + @ @ @ # + @ * + @ # @ # # 2 2 = = & & w iX&.O & . % ",
"        + 2 4 u 3 4 y u y p e e 4 y u p f j j j g g l F j j p p 2 # * # # * : 0 @ # @ * @ # # # 2 2 2 2 2 ; = = 5 : t q q x .   ",
"          + w w 4 r e e 6 p u 4 e e e e e r r e 3 e u u u a p u p t 2 * # # - q # # @ - @ - w # - 2 q w 3 - 5 + @ > = o % %   . ",
"          X o o 3 y y 6 y g g u s y r t e w e e y e e e e e u y p e 2 # # - - - 2 2 - 2 * 2 ; o - w w w w w e 2 5 3 O           ",
"      X         o ; y s y y i i r r r r r r r r r e e ; q w y r ; ; 2 2 ; ; - - t 2 2 e e w -   @ e w w 0 q t t o X X %     .   ",
"        X         + e 6 6 6 y a p c p p p r r t w w r e ; q w ; e w 3 e w w w e t e 3 u u r 3 O # t t w 0 0 $ $                 ",
"                  X + : e y u p d d a c p e y 4 r r p r e r r q p r w e r e e p p r u h f u r w w 0 $ $ $ %     X   .           ",
"                      . ; e t w t w r r i u y e p r w e e a c e q ; w p p y q p p p p u y w e r 0 o     X                 .     "
};
